G04 EAGLE Gerber RS-274X export*
G75*
%MOMM*%
%FSLAX34Y34*%
%LPD*%
%INTop Copper*%
%IPPOS*%
%AMOC8*
5,1,8,0,0,1.08239X$1,22.5*%
G01*
%ADD10C,0.130000*%
%ADD11C,0.130000*%
%ADD12C,0.152400*%
%ADD13P,2.336880X8X22.500000*%
%ADD14R,1.358000X1.358000*%
%ADD15R,1.108000X1.108000*%


D10*
X25400Y723800D03*
X25400Y190500D03*
D11*
X25400Y191150D02*
X25400Y723150D01*
X22208Y697800D01*
X28592Y697800D01*
X25400Y723150D01*
X24100Y697800D01*
X26700Y697800D02*
X25400Y723150D01*
X22800Y697800D01*
X28000Y697800D02*
X25400Y723150D01*
X22208Y216500D02*
X25400Y191150D01*
X22208Y216500D02*
X28592Y216500D01*
X25400Y191150D01*
X24100Y216500D01*
X26700Y216500D02*
X25400Y191150D01*
X22800Y216500D01*
X28000Y216500D02*
X25400Y191150D01*
D12*
X18893Y426002D02*
X18893Y431421D01*
X18891Y431539D01*
X18885Y431657D01*
X18876Y431775D01*
X18862Y431892D01*
X18845Y432009D01*
X18824Y432126D01*
X18799Y432241D01*
X18770Y432356D01*
X18737Y432470D01*
X18701Y432582D01*
X18661Y432693D01*
X18618Y432803D01*
X18571Y432912D01*
X18521Y433019D01*
X18466Y433124D01*
X18409Y433227D01*
X18348Y433328D01*
X18284Y433428D01*
X18217Y433525D01*
X18147Y433620D01*
X18073Y433712D01*
X17997Y433803D01*
X17917Y433890D01*
X17835Y433975D01*
X17750Y434057D01*
X17663Y434137D01*
X17572Y434213D01*
X17480Y434287D01*
X17385Y434357D01*
X17288Y434424D01*
X17188Y434488D01*
X17087Y434549D01*
X16984Y434606D01*
X16879Y434661D01*
X16772Y434711D01*
X16663Y434758D01*
X16553Y434801D01*
X16442Y434841D01*
X16330Y434877D01*
X16216Y434910D01*
X16101Y434939D01*
X15986Y434964D01*
X15869Y434985D01*
X15752Y435002D01*
X15635Y435016D01*
X15517Y435025D01*
X15399Y435031D01*
X15281Y435033D01*
X13474Y435033D01*
X13356Y435031D01*
X13238Y435025D01*
X13120Y435016D01*
X13003Y435002D01*
X12886Y434985D01*
X12769Y434964D01*
X12654Y434939D01*
X12539Y434910D01*
X12425Y434877D01*
X12313Y434841D01*
X12202Y434801D01*
X12092Y434758D01*
X11983Y434711D01*
X11876Y434661D01*
X11771Y434606D01*
X11668Y434549D01*
X11567Y434488D01*
X11467Y434424D01*
X11370Y434357D01*
X11275Y434287D01*
X11183Y434213D01*
X11092Y434137D01*
X11005Y434057D01*
X10920Y433975D01*
X10838Y433890D01*
X10758Y433803D01*
X10682Y433712D01*
X10608Y433620D01*
X10538Y433525D01*
X10471Y433428D01*
X10407Y433328D01*
X10346Y433227D01*
X10289Y433124D01*
X10234Y433019D01*
X10184Y432912D01*
X10137Y432803D01*
X10094Y432693D01*
X10054Y432582D01*
X10018Y432470D01*
X9985Y432356D01*
X9956Y432241D01*
X9931Y432126D01*
X9910Y432009D01*
X9893Y431892D01*
X9879Y431775D01*
X9870Y431657D01*
X9864Y431539D01*
X9862Y431421D01*
X9862Y426002D01*
X2637Y426002D01*
X2637Y435033D01*
X18893Y441633D02*
X18893Y446149D01*
X18891Y446282D01*
X18885Y446414D01*
X18875Y446546D01*
X18862Y446678D01*
X18844Y446810D01*
X18823Y446940D01*
X18798Y447071D01*
X18769Y447200D01*
X18736Y447328D01*
X18700Y447456D01*
X18660Y447582D01*
X18616Y447707D01*
X18568Y447831D01*
X18517Y447953D01*
X18462Y448074D01*
X18404Y448193D01*
X18342Y448311D01*
X18277Y448426D01*
X18208Y448540D01*
X18137Y448651D01*
X18061Y448760D01*
X17983Y448867D01*
X17902Y448972D01*
X17817Y449074D01*
X17730Y449174D01*
X17640Y449271D01*
X17547Y449366D01*
X17451Y449457D01*
X17353Y449546D01*
X17252Y449632D01*
X17148Y449715D01*
X17042Y449795D01*
X16934Y449871D01*
X16824Y449945D01*
X16711Y450015D01*
X16597Y450082D01*
X16480Y450145D01*
X16362Y450205D01*
X16242Y450262D01*
X16120Y450315D01*
X15997Y450364D01*
X15873Y450410D01*
X15747Y450452D01*
X15620Y450490D01*
X15492Y450525D01*
X15363Y450556D01*
X15234Y450583D01*
X15103Y450606D01*
X14972Y450626D01*
X14840Y450641D01*
X14708Y450653D01*
X14576Y450661D01*
X14443Y450665D01*
X14311Y450665D01*
X14178Y450661D01*
X14046Y450653D01*
X13914Y450641D01*
X13782Y450626D01*
X13651Y450606D01*
X13520Y450583D01*
X13391Y450556D01*
X13262Y450525D01*
X13134Y450490D01*
X13007Y450452D01*
X12881Y450410D01*
X12757Y450364D01*
X12634Y450315D01*
X12512Y450262D01*
X12392Y450205D01*
X12274Y450145D01*
X12157Y450082D01*
X12043Y450015D01*
X11930Y449945D01*
X11820Y449871D01*
X11712Y449795D01*
X11606Y449715D01*
X11502Y449632D01*
X11401Y449546D01*
X11303Y449457D01*
X11207Y449366D01*
X11114Y449271D01*
X11024Y449174D01*
X10937Y449074D01*
X10852Y448972D01*
X10771Y448867D01*
X10693Y448760D01*
X10617Y448651D01*
X10546Y448540D01*
X10477Y448426D01*
X10412Y448311D01*
X10350Y448193D01*
X10292Y448074D01*
X10237Y447953D01*
X10186Y447831D01*
X10138Y447707D01*
X10094Y447582D01*
X10054Y447456D01*
X10018Y447328D01*
X9985Y447200D01*
X9956Y447071D01*
X9931Y446940D01*
X9910Y446810D01*
X9892Y446678D01*
X9879Y446546D01*
X9869Y446414D01*
X9863Y446282D01*
X9861Y446149D01*
X2637Y447052D02*
X2637Y441633D01*
X2637Y447052D02*
X2639Y447171D01*
X2645Y447291D01*
X2655Y447410D01*
X2669Y447528D01*
X2686Y447647D01*
X2708Y447764D01*
X2733Y447881D01*
X2763Y447996D01*
X2796Y448111D01*
X2833Y448225D01*
X2873Y448337D01*
X2918Y448448D01*
X2966Y448557D01*
X3017Y448665D01*
X3072Y448771D01*
X3131Y448875D01*
X3193Y448977D01*
X3258Y449077D01*
X3327Y449175D01*
X3399Y449271D01*
X3474Y449364D01*
X3551Y449454D01*
X3632Y449542D01*
X3716Y449627D01*
X3803Y449709D01*
X3892Y449789D01*
X3984Y449865D01*
X4078Y449939D01*
X4175Y450009D01*
X4273Y450076D01*
X4374Y450140D01*
X4478Y450200D01*
X4583Y450257D01*
X4690Y450310D01*
X4798Y450360D01*
X4908Y450406D01*
X5020Y450448D01*
X5133Y450487D01*
X5247Y450522D01*
X5362Y450553D01*
X5479Y450581D01*
X5596Y450604D01*
X5713Y450624D01*
X5832Y450640D01*
X5951Y450652D01*
X6070Y450660D01*
X6189Y450664D01*
X6309Y450664D01*
X6428Y450660D01*
X6547Y450652D01*
X6666Y450640D01*
X6785Y450624D01*
X6902Y450604D01*
X7019Y450581D01*
X7136Y450553D01*
X7251Y450522D01*
X7365Y450487D01*
X7478Y450448D01*
X7590Y450406D01*
X7700Y450360D01*
X7808Y450310D01*
X7915Y450257D01*
X8020Y450200D01*
X8124Y450140D01*
X8225Y450076D01*
X8323Y450009D01*
X8420Y449939D01*
X8514Y449865D01*
X8606Y449789D01*
X8695Y449709D01*
X8782Y449627D01*
X8866Y449542D01*
X8947Y449454D01*
X9024Y449364D01*
X9099Y449271D01*
X9171Y449175D01*
X9240Y449077D01*
X9305Y448977D01*
X9367Y448875D01*
X9426Y448771D01*
X9481Y448665D01*
X9532Y448557D01*
X9580Y448448D01*
X9625Y448337D01*
X9665Y448225D01*
X9702Y448111D01*
X9735Y447996D01*
X9765Y447881D01*
X9790Y447764D01*
X9812Y447647D01*
X9829Y447528D01*
X9843Y447410D01*
X9853Y447291D01*
X9859Y447171D01*
X9861Y447052D01*
X9862Y447052D02*
X9862Y443439D01*
X17990Y456639D02*
X18893Y456639D01*
X17990Y456639D02*
X17990Y457542D01*
X18893Y457542D01*
X18893Y456639D01*
X18893Y463517D02*
X18893Y468032D01*
X18891Y468165D01*
X18885Y468297D01*
X18875Y468429D01*
X18862Y468561D01*
X18844Y468693D01*
X18823Y468823D01*
X18798Y468954D01*
X18769Y469083D01*
X18736Y469211D01*
X18700Y469339D01*
X18660Y469465D01*
X18616Y469590D01*
X18568Y469714D01*
X18517Y469836D01*
X18462Y469957D01*
X18404Y470076D01*
X18342Y470194D01*
X18277Y470309D01*
X18208Y470423D01*
X18137Y470534D01*
X18061Y470643D01*
X17983Y470750D01*
X17902Y470855D01*
X17817Y470957D01*
X17730Y471057D01*
X17640Y471154D01*
X17547Y471249D01*
X17451Y471340D01*
X17353Y471429D01*
X17252Y471515D01*
X17148Y471598D01*
X17042Y471678D01*
X16934Y471754D01*
X16824Y471828D01*
X16711Y471898D01*
X16597Y471965D01*
X16480Y472028D01*
X16362Y472088D01*
X16242Y472145D01*
X16120Y472198D01*
X15997Y472247D01*
X15873Y472293D01*
X15747Y472335D01*
X15620Y472373D01*
X15492Y472408D01*
X15363Y472439D01*
X15234Y472466D01*
X15103Y472489D01*
X14972Y472509D01*
X14840Y472524D01*
X14708Y472536D01*
X14576Y472544D01*
X14443Y472548D01*
X14311Y472548D01*
X14178Y472544D01*
X14046Y472536D01*
X13914Y472524D01*
X13782Y472509D01*
X13651Y472489D01*
X13520Y472466D01*
X13391Y472439D01*
X13262Y472408D01*
X13134Y472373D01*
X13007Y472335D01*
X12881Y472293D01*
X12757Y472247D01*
X12634Y472198D01*
X12512Y472145D01*
X12392Y472088D01*
X12274Y472028D01*
X12157Y471965D01*
X12043Y471898D01*
X11930Y471828D01*
X11820Y471754D01*
X11712Y471678D01*
X11606Y471598D01*
X11502Y471515D01*
X11401Y471429D01*
X11303Y471340D01*
X11207Y471249D01*
X11114Y471154D01*
X11024Y471057D01*
X10937Y470957D01*
X10852Y470855D01*
X10771Y470750D01*
X10693Y470643D01*
X10617Y470534D01*
X10546Y470423D01*
X10477Y470309D01*
X10412Y470194D01*
X10350Y470076D01*
X10292Y469957D01*
X10237Y469836D01*
X10186Y469714D01*
X10138Y469590D01*
X10094Y469465D01*
X10054Y469339D01*
X10018Y469211D01*
X9985Y469083D01*
X9956Y468954D01*
X9931Y468823D01*
X9910Y468693D01*
X9892Y468561D01*
X9879Y468429D01*
X9869Y468297D01*
X9863Y468165D01*
X9861Y468032D01*
X2637Y468936D02*
X2637Y463517D01*
X2637Y468936D02*
X2639Y469055D01*
X2645Y469175D01*
X2655Y469294D01*
X2669Y469412D01*
X2686Y469531D01*
X2708Y469648D01*
X2733Y469765D01*
X2763Y469880D01*
X2796Y469995D01*
X2833Y470109D01*
X2873Y470221D01*
X2918Y470332D01*
X2966Y470441D01*
X3017Y470549D01*
X3072Y470655D01*
X3131Y470759D01*
X3193Y470861D01*
X3258Y470961D01*
X3327Y471059D01*
X3399Y471155D01*
X3474Y471248D01*
X3551Y471338D01*
X3632Y471426D01*
X3716Y471511D01*
X3803Y471593D01*
X3892Y471673D01*
X3984Y471749D01*
X4078Y471823D01*
X4175Y471893D01*
X4273Y471960D01*
X4374Y472024D01*
X4478Y472084D01*
X4583Y472141D01*
X4690Y472194D01*
X4798Y472244D01*
X4908Y472290D01*
X5020Y472332D01*
X5133Y472371D01*
X5247Y472406D01*
X5362Y472437D01*
X5479Y472465D01*
X5596Y472488D01*
X5713Y472508D01*
X5832Y472524D01*
X5951Y472536D01*
X6070Y472544D01*
X6189Y472548D01*
X6309Y472548D01*
X6428Y472544D01*
X6547Y472536D01*
X6666Y472524D01*
X6785Y472508D01*
X6902Y472488D01*
X7019Y472465D01*
X7136Y472437D01*
X7251Y472406D01*
X7365Y472371D01*
X7478Y472332D01*
X7590Y472290D01*
X7700Y472244D01*
X7808Y472194D01*
X7915Y472141D01*
X8020Y472084D01*
X8124Y472024D01*
X8225Y471960D01*
X8323Y471893D01*
X8420Y471823D01*
X8514Y471749D01*
X8606Y471673D01*
X8695Y471593D01*
X8782Y471511D01*
X8866Y471426D01*
X8947Y471338D01*
X9024Y471248D01*
X9099Y471155D01*
X9171Y471059D01*
X9240Y470961D01*
X9305Y470861D01*
X9367Y470759D01*
X9426Y470655D01*
X9481Y470549D01*
X9532Y470441D01*
X9580Y470332D01*
X9625Y470221D01*
X9665Y470109D01*
X9702Y469995D01*
X9735Y469880D01*
X9765Y469765D01*
X9790Y469648D01*
X9812Y469531D01*
X9829Y469412D01*
X9843Y469294D01*
X9853Y469175D01*
X9859Y469055D01*
X9861Y468936D01*
X9862Y468936D02*
X9862Y465323D01*
X18893Y479148D02*
X18893Y483664D01*
X18891Y483797D01*
X18885Y483929D01*
X18875Y484061D01*
X18862Y484193D01*
X18844Y484325D01*
X18823Y484455D01*
X18798Y484586D01*
X18769Y484715D01*
X18736Y484843D01*
X18700Y484971D01*
X18660Y485097D01*
X18616Y485222D01*
X18568Y485346D01*
X18517Y485468D01*
X18462Y485589D01*
X18404Y485708D01*
X18342Y485826D01*
X18277Y485941D01*
X18208Y486055D01*
X18137Y486166D01*
X18061Y486275D01*
X17983Y486382D01*
X17902Y486487D01*
X17817Y486589D01*
X17730Y486689D01*
X17640Y486786D01*
X17547Y486881D01*
X17451Y486972D01*
X17353Y487061D01*
X17252Y487147D01*
X17148Y487230D01*
X17042Y487310D01*
X16934Y487386D01*
X16824Y487460D01*
X16711Y487530D01*
X16597Y487597D01*
X16480Y487660D01*
X16362Y487720D01*
X16242Y487777D01*
X16120Y487830D01*
X15997Y487879D01*
X15873Y487925D01*
X15747Y487967D01*
X15620Y488005D01*
X15492Y488040D01*
X15363Y488071D01*
X15234Y488098D01*
X15103Y488121D01*
X14972Y488141D01*
X14840Y488156D01*
X14708Y488168D01*
X14576Y488176D01*
X14443Y488180D01*
X14311Y488180D01*
X14178Y488176D01*
X14046Y488168D01*
X13914Y488156D01*
X13782Y488141D01*
X13651Y488121D01*
X13520Y488098D01*
X13391Y488071D01*
X13262Y488040D01*
X13134Y488005D01*
X13007Y487967D01*
X12881Y487925D01*
X12757Y487879D01*
X12634Y487830D01*
X12512Y487777D01*
X12392Y487720D01*
X12274Y487660D01*
X12157Y487597D01*
X12043Y487530D01*
X11930Y487460D01*
X11820Y487386D01*
X11712Y487310D01*
X11606Y487230D01*
X11502Y487147D01*
X11401Y487061D01*
X11303Y486972D01*
X11207Y486881D01*
X11114Y486786D01*
X11024Y486689D01*
X10937Y486589D01*
X10852Y486487D01*
X10771Y486382D01*
X10693Y486275D01*
X10617Y486166D01*
X10546Y486055D01*
X10477Y485941D01*
X10412Y485826D01*
X10350Y485708D01*
X10292Y485589D01*
X10237Y485468D01*
X10186Y485346D01*
X10138Y485222D01*
X10094Y485097D01*
X10054Y484971D01*
X10018Y484843D01*
X9985Y484715D01*
X9956Y484586D01*
X9931Y484455D01*
X9910Y484325D01*
X9892Y484193D01*
X9879Y484061D01*
X9869Y483929D01*
X9863Y483797D01*
X9861Y483664D01*
X2637Y484567D02*
X2637Y479148D01*
X2637Y484567D02*
X2639Y484686D01*
X2645Y484806D01*
X2655Y484925D01*
X2669Y485043D01*
X2686Y485162D01*
X2708Y485279D01*
X2733Y485396D01*
X2763Y485511D01*
X2796Y485626D01*
X2833Y485740D01*
X2873Y485852D01*
X2918Y485963D01*
X2966Y486072D01*
X3017Y486180D01*
X3072Y486286D01*
X3131Y486390D01*
X3193Y486492D01*
X3258Y486592D01*
X3327Y486690D01*
X3399Y486786D01*
X3474Y486879D01*
X3551Y486969D01*
X3632Y487057D01*
X3716Y487142D01*
X3803Y487224D01*
X3892Y487304D01*
X3984Y487380D01*
X4078Y487454D01*
X4175Y487524D01*
X4273Y487591D01*
X4374Y487655D01*
X4478Y487715D01*
X4583Y487772D01*
X4690Y487825D01*
X4798Y487875D01*
X4908Y487921D01*
X5020Y487963D01*
X5133Y488002D01*
X5247Y488037D01*
X5362Y488068D01*
X5479Y488096D01*
X5596Y488119D01*
X5713Y488139D01*
X5832Y488155D01*
X5951Y488167D01*
X6070Y488175D01*
X6189Y488179D01*
X6309Y488179D01*
X6428Y488175D01*
X6547Y488167D01*
X6666Y488155D01*
X6785Y488139D01*
X6902Y488119D01*
X7019Y488096D01*
X7136Y488068D01*
X7251Y488037D01*
X7365Y488002D01*
X7478Y487963D01*
X7590Y487921D01*
X7700Y487875D01*
X7808Y487825D01*
X7915Y487772D01*
X8020Y487715D01*
X8124Y487655D01*
X8225Y487591D01*
X8323Y487524D01*
X8420Y487454D01*
X8514Y487380D01*
X8606Y487304D01*
X8695Y487224D01*
X8782Y487142D01*
X8866Y487057D01*
X8947Y486969D01*
X9024Y486879D01*
X9099Y486786D01*
X9171Y486690D01*
X9240Y486592D01*
X9305Y486492D01*
X9367Y486390D01*
X9426Y486286D01*
X9481Y486180D01*
X9532Y486072D01*
X9580Y485963D01*
X9625Y485852D01*
X9665Y485740D01*
X9702Y485626D01*
X9735Y485511D01*
X9765Y485396D01*
X9790Y485279D01*
X9812Y485162D01*
X9829Y485043D01*
X9843Y484925D01*
X9853Y484806D01*
X9859Y484686D01*
X9861Y484567D01*
X9862Y484567D02*
X9862Y480954D01*
D13*
X50800Y355600D03*
X50800Y622300D03*
X50800Y457200D03*
X50800Y482600D03*
X50800Y228600D03*
X50800Y304800D03*
X508000Y635000D03*
X508000Y558800D03*
X50800Y685800D03*
D14*
X165100Y228600D03*
X165100Y254000D03*
X165100Y279400D03*
X165100Y304800D03*
X165100Y330200D03*
X165100Y355600D03*
X165100Y381000D03*
X165100Y406400D03*
X165100Y431800D03*
X165100Y457200D03*
X165100Y482600D03*
X165100Y508000D03*
X165100Y533400D03*
X165100Y558800D03*
X165100Y584200D03*
X165100Y609600D03*
X165100Y635000D03*
X165100Y660400D03*
X165100Y685800D03*
X393700Y228600D03*
X393700Y254000D03*
X393700Y279400D03*
X393700Y304800D03*
X393700Y330200D03*
X393700Y355600D03*
X393700Y381000D03*
X393700Y406400D03*
X393700Y431800D03*
X393700Y457200D03*
D15*
X393700Y482600D03*
D14*
X393700Y508000D03*
X393700Y533400D03*
X393700Y558800D03*
X393700Y584200D03*
X393700Y609600D03*
X393700Y635000D03*
X393700Y660400D03*
X393700Y685800D03*
D12*
X165100Y685800D02*
X51816Y685800D01*
X51816Y623316D01*
X50800Y622300D01*
X50800Y685800D02*
X51816Y685800D01*
X51816Y483108D02*
X164592Y483108D01*
X165100Y482600D01*
X51816Y483108D02*
X50800Y482600D01*
X50800Y457200D02*
X165100Y457200D01*
X164592Y356616D02*
X51816Y356616D01*
X164592Y356616D02*
X165100Y355600D01*
X51816Y356616D02*
X50800Y355600D01*
X51816Y355092D02*
X51816Y304800D01*
X50800Y304800D01*
X51816Y355092D02*
X50800Y355600D01*
X50800Y228600D02*
X165100Y228600D01*
X394716Y635508D02*
X507492Y635508D01*
X394716Y635508D02*
X393700Y635000D01*
X507492Y635508D02*
X508000Y635000D01*
X507492Y559308D02*
X394716Y559308D01*
X393700Y558800D01*
X507492Y559308D02*
X508000Y558800D01*
M02*
