M48
;GenerationSoftware,Autodesk,EAGLE,9.6.2*%
;CreationDate,2021-04-09T14:44:12Z*%
FMAT,2
ICI,OFF
METRIC,TZ,000.000
T4C0.350
T3C0.600
T2C0.850
T1C1.016
%
G90
M71
T1
X5080Y30480
X5080Y35560
X5080Y62230
X5080Y45720
X5080Y48260
X5080Y22860
X5080Y68580
X50800Y63500
X50800Y55880
T2
X16510Y27940
X16510Y22860
X16510Y25400
X39370Y68580
X16510Y30480
X16510Y33020
X16510Y35560
X16510Y38100
X16510Y40640
X16510Y43180
X16510Y45720
X16510Y48260
X16510Y50800
X16510Y53340
X16510Y55880
X16510Y58420
X16510Y60960
X16510Y63500
X16510Y66040
X16510Y68580
X39370Y22860
X39370Y25400
X39370Y27940
X39370Y30480
X39370Y33020
X39370Y35560
X39370Y38100
X39370Y40640
X39370Y43180
X39370Y45720
X39370Y50800
X39370Y53340
X39370Y55880
X39370Y58420
X39370Y60960
X39370Y63500
X39370Y66040
T3
X39370Y48260
T4
X49530Y36830
M30