G04 EAGLE Gerber RS-274X export*
G75*
%MOMM*%
%FSLAX34Y34*%
%LPD*%
%INSilkscreen Top*%
%IPPOS*%
%AMOC8*
5,1,8,0,0,1.08239X$1,22.5*%
G01*
%ADD10C,0.152400*%
%ADD11C,0.127000*%
%ADD12C,0.101600*%

G36*
X317565Y215277D02*
X317565Y215277D01*
X317631Y215279D01*
X317674Y215297D01*
X317721Y215305D01*
X317778Y215339D01*
X317838Y215364D01*
X317873Y215395D01*
X317914Y215420D01*
X317956Y215471D01*
X318004Y215515D01*
X318026Y215557D01*
X318055Y215594D01*
X318076Y215656D01*
X318107Y215715D01*
X318115Y215769D01*
X318127Y215806D01*
X318126Y215846D01*
X318134Y215900D01*
X318134Y241300D01*
X318123Y241365D01*
X318121Y241431D01*
X318103Y241474D01*
X318095Y241521D01*
X318061Y241578D01*
X318036Y241638D01*
X318005Y241673D01*
X317980Y241714D01*
X317929Y241756D01*
X317885Y241804D01*
X317843Y241826D01*
X317806Y241855D01*
X317744Y241876D01*
X317685Y241907D01*
X317631Y241915D01*
X317594Y241927D01*
X317554Y241926D01*
X317500Y241934D01*
X241300Y241934D01*
X241235Y241923D01*
X241169Y241921D01*
X241126Y241903D01*
X241079Y241895D01*
X241022Y241861D01*
X240962Y241836D01*
X240927Y241805D01*
X240886Y241780D01*
X240845Y241729D01*
X240796Y241685D01*
X240774Y241643D01*
X240745Y241606D01*
X240724Y241544D01*
X240693Y241485D01*
X240685Y241431D01*
X240673Y241394D01*
X240674Y241366D01*
X240673Y241364D01*
X240673Y241349D01*
X240666Y241300D01*
X240666Y215900D01*
X240677Y215835D01*
X240679Y215769D01*
X240697Y215726D01*
X240705Y215679D01*
X240739Y215622D01*
X240764Y215562D01*
X240795Y215527D01*
X240820Y215486D01*
X240871Y215445D01*
X240915Y215396D01*
X240957Y215374D01*
X240994Y215345D01*
X241056Y215324D01*
X241115Y215293D01*
X241169Y215285D01*
X241206Y215273D01*
X241246Y215274D01*
X241300Y215266D01*
X317500Y215266D01*
X317565Y215277D01*
G37*
D10*
X38100Y358140D02*
X38100Y353060D01*
X63500Y353060D02*
X63500Y358140D01*
X62230Y358140D01*
X62230Y353060D02*
X63500Y353060D01*
X39370Y353060D02*
X38100Y353060D01*
X38100Y358140D02*
X39370Y358140D01*
D11*
X38735Y368935D02*
X38735Y380365D01*
X38735Y375285D02*
X45085Y375285D01*
X45085Y380365D02*
X45085Y368935D01*
X49911Y368935D02*
X57531Y380365D01*
X49911Y380365D02*
X57531Y368935D01*
X61976Y379095D02*
X61976Y380365D01*
X68326Y380365D01*
X65151Y368935D01*
X73406Y377825D02*
X76581Y380365D01*
X76581Y368935D01*
X73406Y368935D02*
X79756Y368935D01*
X84836Y377825D02*
X88011Y380365D01*
X88011Y368935D01*
X84836Y368935D02*
X91186Y368935D01*
X101092Y375285D02*
X102997Y375285D01*
X102997Y368935D01*
X99187Y368935D01*
X99087Y368937D01*
X98988Y368943D01*
X98888Y368953D01*
X98790Y368966D01*
X98691Y368984D01*
X98594Y369005D01*
X98498Y369030D01*
X98402Y369059D01*
X98308Y369092D01*
X98215Y369128D01*
X98124Y369168D01*
X98034Y369212D01*
X97946Y369259D01*
X97860Y369309D01*
X97776Y369363D01*
X97694Y369420D01*
X97615Y369480D01*
X97537Y369544D01*
X97463Y369610D01*
X97391Y369679D01*
X97322Y369751D01*
X97256Y369825D01*
X97192Y369903D01*
X97132Y369982D01*
X97075Y370064D01*
X97021Y370148D01*
X96971Y370234D01*
X96924Y370322D01*
X96880Y370412D01*
X96840Y370503D01*
X96804Y370596D01*
X96771Y370690D01*
X96742Y370786D01*
X96717Y370882D01*
X96696Y370979D01*
X96678Y371078D01*
X96665Y371176D01*
X96655Y371276D01*
X96649Y371375D01*
X96647Y371475D01*
X96647Y377825D01*
X96649Y377925D01*
X96655Y378024D01*
X96665Y378124D01*
X96678Y378222D01*
X96696Y378321D01*
X96717Y378418D01*
X96742Y378514D01*
X96771Y378610D01*
X96804Y378704D01*
X96840Y378797D01*
X96880Y378888D01*
X96924Y378978D01*
X96971Y379066D01*
X97021Y379152D01*
X97075Y379236D01*
X97132Y379318D01*
X97192Y379397D01*
X97256Y379475D01*
X97322Y379549D01*
X97391Y379621D01*
X97463Y379690D01*
X97537Y379756D01*
X97615Y379820D01*
X97694Y379880D01*
X97776Y379937D01*
X97860Y379991D01*
X97946Y380041D01*
X98034Y380088D01*
X98124Y380132D01*
X98215Y380172D01*
X98308Y380208D01*
X98402Y380241D01*
X98498Y380270D01*
X98594Y380295D01*
X98691Y380316D01*
X98790Y380334D01*
X98888Y380347D01*
X98988Y380357D01*
X99087Y380363D01*
X99187Y380365D01*
X102997Y380365D01*
X108839Y380365D02*
X108839Y368935D01*
X115189Y368935D02*
X108839Y380365D01*
X115189Y380365D02*
X115189Y368935D01*
X121031Y368935D02*
X121031Y380365D01*
X124206Y380365D01*
X124317Y380363D01*
X124427Y380357D01*
X124538Y380348D01*
X124648Y380334D01*
X124757Y380317D01*
X124866Y380296D01*
X124974Y380271D01*
X125081Y380242D01*
X125187Y380210D01*
X125292Y380174D01*
X125395Y380134D01*
X125497Y380091D01*
X125598Y380044D01*
X125697Y379993D01*
X125794Y379940D01*
X125888Y379883D01*
X125981Y379822D01*
X126072Y379759D01*
X126161Y379692D01*
X126247Y379622D01*
X126330Y379549D01*
X126412Y379474D01*
X126490Y379396D01*
X126565Y379314D01*
X126638Y379231D01*
X126708Y379145D01*
X126775Y379056D01*
X126838Y378965D01*
X126899Y378872D01*
X126956Y378778D01*
X127009Y378681D01*
X127060Y378582D01*
X127107Y378481D01*
X127150Y378379D01*
X127190Y378276D01*
X127226Y378171D01*
X127258Y378065D01*
X127287Y377958D01*
X127312Y377850D01*
X127333Y377741D01*
X127350Y377632D01*
X127364Y377522D01*
X127373Y377411D01*
X127379Y377301D01*
X127381Y377190D01*
X127381Y372110D01*
X127379Y371999D01*
X127373Y371889D01*
X127364Y371778D01*
X127350Y371668D01*
X127333Y371559D01*
X127312Y371450D01*
X127287Y371342D01*
X127258Y371235D01*
X127226Y371129D01*
X127190Y371024D01*
X127150Y370921D01*
X127107Y370819D01*
X127060Y370718D01*
X127009Y370619D01*
X126956Y370522D01*
X126899Y370428D01*
X126838Y370335D01*
X126775Y370244D01*
X126708Y370155D01*
X126638Y370069D01*
X126565Y369986D01*
X126490Y369904D01*
X126412Y369826D01*
X126330Y369751D01*
X126247Y369678D01*
X126161Y369608D01*
X126072Y369541D01*
X125981Y369478D01*
X125888Y369417D01*
X125793Y369360D01*
X125697Y369307D01*
X125598Y369256D01*
X125497Y369209D01*
X125395Y369166D01*
X125292Y369126D01*
X125187Y369090D01*
X125081Y369058D01*
X124974Y369029D01*
X124866Y369004D01*
X124757Y368983D01*
X124648Y368966D01*
X124538Y368952D01*
X124427Y368943D01*
X124317Y368937D01*
X124206Y368935D01*
X121031Y368935D01*
D10*
X38100Y619760D02*
X38100Y624840D01*
X63500Y624840D02*
X63500Y619760D01*
X63500Y624840D02*
X62230Y624840D01*
X62230Y619760D02*
X63500Y619760D01*
X39370Y619760D02*
X38100Y619760D01*
X38100Y624840D02*
X39370Y624840D01*
D11*
X38735Y635635D02*
X38735Y647065D01*
X38735Y641985D02*
X45085Y641985D01*
X45085Y647065D02*
X45085Y635635D01*
X49911Y635635D02*
X57531Y647065D01*
X49911Y647065D02*
X57531Y635635D01*
X61976Y645795D02*
X61976Y647065D01*
X68326Y647065D01*
X65151Y635635D01*
X73406Y644525D02*
X76581Y647065D01*
X76581Y635635D01*
X73406Y635635D02*
X79756Y635635D01*
X84836Y644525D02*
X88011Y647065D01*
X88011Y635635D01*
X84836Y635635D02*
X91186Y635635D01*
X99441Y635635D02*
X95631Y647065D01*
X103251Y647065D02*
X99441Y635635D01*
X108585Y635635D02*
X108585Y647065D01*
X107315Y635635D02*
X109855Y635635D01*
X109855Y647065D02*
X107315Y647065D01*
X114935Y647065D02*
X114935Y635635D01*
X121285Y635635D02*
X114935Y647065D01*
X121285Y647065D02*
X121285Y635635D01*
D10*
X38100Y459740D02*
X38100Y454660D01*
X63500Y454660D02*
X63500Y459740D01*
X62230Y459740D01*
X62230Y454660D02*
X63500Y454660D01*
X39370Y454660D02*
X38100Y454660D01*
X38100Y459740D02*
X39370Y459740D01*
D11*
X38735Y443865D02*
X38735Y432435D01*
X43815Y432435D01*
X48235Y435610D02*
X48235Y440690D01*
X48237Y440801D01*
X48243Y440911D01*
X48252Y441022D01*
X48266Y441132D01*
X48283Y441241D01*
X48304Y441350D01*
X48329Y441458D01*
X48358Y441565D01*
X48390Y441671D01*
X48426Y441776D01*
X48466Y441879D01*
X48509Y441981D01*
X48556Y442082D01*
X48607Y442181D01*
X48660Y442278D01*
X48717Y442372D01*
X48778Y442465D01*
X48841Y442556D01*
X48908Y442645D01*
X48978Y442731D01*
X49051Y442814D01*
X49126Y442896D01*
X49204Y442974D01*
X49286Y443049D01*
X49369Y443122D01*
X49455Y443192D01*
X49544Y443259D01*
X49635Y443322D01*
X49728Y443383D01*
X49822Y443440D01*
X49919Y443493D01*
X50018Y443544D01*
X50119Y443591D01*
X50221Y443634D01*
X50324Y443674D01*
X50429Y443710D01*
X50535Y443742D01*
X50642Y443771D01*
X50750Y443796D01*
X50859Y443817D01*
X50968Y443834D01*
X51078Y443848D01*
X51189Y443857D01*
X51299Y443863D01*
X51410Y443865D01*
X51521Y443863D01*
X51631Y443857D01*
X51742Y443848D01*
X51852Y443834D01*
X51961Y443817D01*
X52070Y443796D01*
X52178Y443771D01*
X52285Y443742D01*
X52391Y443710D01*
X52496Y443674D01*
X52599Y443634D01*
X52701Y443591D01*
X52802Y443544D01*
X52901Y443493D01*
X52998Y443440D01*
X53092Y443383D01*
X53185Y443322D01*
X53276Y443259D01*
X53365Y443192D01*
X53451Y443122D01*
X53534Y443049D01*
X53616Y442974D01*
X53694Y442896D01*
X53769Y442814D01*
X53842Y442731D01*
X53912Y442645D01*
X53979Y442556D01*
X54042Y442465D01*
X54103Y442372D01*
X54160Y442278D01*
X54213Y442181D01*
X54264Y442082D01*
X54311Y441981D01*
X54354Y441879D01*
X54394Y441776D01*
X54430Y441671D01*
X54462Y441565D01*
X54491Y441458D01*
X54516Y441350D01*
X54537Y441241D01*
X54554Y441132D01*
X54568Y441022D01*
X54577Y440911D01*
X54583Y440801D01*
X54585Y440690D01*
X54585Y435610D01*
X54583Y435499D01*
X54577Y435389D01*
X54568Y435278D01*
X54554Y435168D01*
X54537Y435059D01*
X54516Y434950D01*
X54491Y434842D01*
X54462Y434735D01*
X54430Y434629D01*
X54394Y434524D01*
X54354Y434421D01*
X54311Y434319D01*
X54264Y434218D01*
X54213Y434119D01*
X54160Y434022D01*
X54103Y433928D01*
X54042Y433835D01*
X53979Y433744D01*
X53912Y433655D01*
X53842Y433569D01*
X53769Y433486D01*
X53694Y433404D01*
X53616Y433326D01*
X53534Y433251D01*
X53451Y433178D01*
X53365Y433108D01*
X53276Y433041D01*
X53185Y432978D01*
X53092Y432917D01*
X52997Y432860D01*
X52901Y432807D01*
X52802Y432756D01*
X52701Y432709D01*
X52599Y432666D01*
X52496Y432626D01*
X52391Y432590D01*
X52285Y432558D01*
X52178Y432529D01*
X52070Y432504D01*
X51961Y432483D01*
X51852Y432466D01*
X51742Y432452D01*
X51631Y432443D01*
X51521Y432437D01*
X51410Y432435D01*
X51299Y432437D01*
X51189Y432443D01*
X51078Y432452D01*
X50968Y432466D01*
X50859Y432483D01*
X50750Y432504D01*
X50642Y432529D01*
X50535Y432558D01*
X50429Y432590D01*
X50324Y432626D01*
X50221Y432666D01*
X50119Y432709D01*
X50018Y432756D01*
X49919Y432807D01*
X49823Y432860D01*
X49728Y432917D01*
X49635Y432978D01*
X49544Y433041D01*
X49455Y433108D01*
X49369Y433178D01*
X49286Y433251D01*
X49204Y433326D01*
X49126Y433404D01*
X49051Y433486D01*
X48978Y433569D01*
X48908Y433655D01*
X48841Y433744D01*
X48778Y433835D01*
X48717Y433928D01*
X48660Y434023D01*
X48607Y434119D01*
X48556Y434218D01*
X48509Y434319D01*
X48466Y434421D01*
X48426Y434524D01*
X48390Y434629D01*
X48358Y434735D01*
X48329Y434842D01*
X48304Y434950D01*
X48283Y435059D01*
X48266Y435168D01*
X48252Y435278D01*
X48243Y435389D01*
X48237Y435499D01*
X48235Y435610D01*
X59030Y432435D02*
X62840Y443865D01*
X66650Y432435D01*
X65697Y435293D02*
X59982Y435293D01*
X71476Y432435D02*
X71476Y443865D01*
X74651Y443865D01*
X74762Y443863D01*
X74872Y443857D01*
X74983Y443848D01*
X75093Y443834D01*
X75202Y443817D01*
X75311Y443796D01*
X75419Y443771D01*
X75526Y443742D01*
X75632Y443710D01*
X75737Y443674D01*
X75840Y443634D01*
X75942Y443591D01*
X76043Y443544D01*
X76142Y443493D01*
X76239Y443440D01*
X76333Y443383D01*
X76426Y443322D01*
X76517Y443259D01*
X76606Y443192D01*
X76692Y443122D01*
X76775Y443049D01*
X76857Y442974D01*
X76935Y442896D01*
X77010Y442814D01*
X77083Y442731D01*
X77153Y442645D01*
X77220Y442556D01*
X77283Y442465D01*
X77344Y442372D01*
X77401Y442278D01*
X77454Y442181D01*
X77505Y442082D01*
X77552Y441981D01*
X77595Y441879D01*
X77635Y441776D01*
X77671Y441671D01*
X77703Y441565D01*
X77732Y441458D01*
X77757Y441350D01*
X77778Y441241D01*
X77795Y441132D01*
X77809Y441022D01*
X77818Y440911D01*
X77824Y440801D01*
X77826Y440690D01*
X77826Y435610D01*
X77824Y435499D01*
X77818Y435389D01*
X77809Y435278D01*
X77795Y435168D01*
X77778Y435059D01*
X77757Y434950D01*
X77732Y434842D01*
X77703Y434735D01*
X77671Y434629D01*
X77635Y434524D01*
X77595Y434421D01*
X77552Y434319D01*
X77505Y434218D01*
X77454Y434119D01*
X77401Y434022D01*
X77344Y433928D01*
X77283Y433835D01*
X77220Y433744D01*
X77153Y433655D01*
X77083Y433569D01*
X77010Y433486D01*
X76935Y433404D01*
X76857Y433326D01*
X76775Y433251D01*
X76692Y433178D01*
X76606Y433108D01*
X76517Y433041D01*
X76426Y432978D01*
X76333Y432917D01*
X76238Y432860D01*
X76142Y432807D01*
X76043Y432756D01*
X75942Y432709D01*
X75840Y432666D01*
X75737Y432626D01*
X75632Y432590D01*
X75526Y432558D01*
X75419Y432529D01*
X75311Y432504D01*
X75202Y432483D01*
X75093Y432466D01*
X74983Y432452D01*
X74872Y432443D01*
X74762Y432437D01*
X74651Y432435D01*
X71476Y432435D01*
X83668Y432435D02*
X83668Y443865D01*
X86843Y443865D01*
X86954Y443863D01*
X87064Y443857D01*
X87175Y443848D01*
X87285Y443834D01*
X87394Y443817D01*
X87503Y443796D01*
X87611Y443771D01*
X87718Y443742D01*
X87824Y443710D01*
X87929Y443674D01*
X88032Y443634D01*
X88134Y443591D01*
X88235Y443544D01*
X88334Y443493D01*
X88431Y443440D01*
X88525Y443383D01*
X88618Y443322D01*
X88709Y443259D01*
X88798Y443192D01*
X88884Y443122D01*
X88967Y443049D01*
X89049Y442974D01*
X89127Y442896D01*
X89202Y442814D01*
X89275Y442731D01*
X89345Y442645D01*
X89412Y442556D01*
X89475Y442465D01*
X89536Y442372D01*
X89593Y442278D01*
X89646Y442181D01*
X89697Y442082D01*
X89744Y441981D01*
X89787Y441879D01*
X89827Y441776D01*
X89863Y441671D01*
X89895Y441565D01*
X89924Y441458D01*
X89949Y441350D01*
X89970Y441241D01*
X89987Y441132D01*
X90001Y441022D01*
X90010Y440911D01*
X90016Y440801D01*
X90018Y440690D01*
X90018Y435610D01*
X90016Y435499D01*
X90010Y435389D01*
X90001Y435278D01*
X89987Y435168D01*
X89970Y435059D01*
X89949Y434950D01*
X89924Y434842D01*
X89895Y434735D01*
X89863Y434629D01*
X89827Y434524D01*
X89787Y434421D01*
X89744Y434319D01*
X89697Y434218D01*
X89646Y434119D01*
X89593Y434022D01*
X89536Y433928D01*
X89475Y433835D01*
X89412Y433744D01*
X89345Y433655D01*
X89275Y433569D01*
X89202Y433486D01*
X89127Y433404D01*
X89049Y433326D01*
X88967Y433251D01*
X88884Y433178D01*
X88798Y433108D01*
X88709Y433041D01*
X88618Y432978D01*
X88525Y432917D01*
X88430Y432860D01*
X88334Y432807D01*
X88235Y432756D01*
X88134Y432709D01*
X88032Y432666D01*
X87929Y432626D01*
X87824Y432590D01*
X87718Y432558D01*
X87611Y432529D01*
X87503Y432504D01*
X87394Y432483D01*
X87285Y432466D01*
X87175Y432452D01*
X87064Y432443D01*
X86954Y432437D01*
X86843Y432435D01*
X83668Y432435D01*
X97892Y432435D02*
X97892Y443865D01*
X94717Y443865D02*
X101067Y443865D01*
D10*
X38100Y480060D02*
X38100Y485140D01*
X63500Y485140D02*
X63500Y480060D01*
X63500Y485140D02*
X62230Y485140D01*
X62230Y480060D02*
X63500Y480060D01*
X39370Y480060D02*
X38100Y480060D01*
X38100Y485140D02*
X39370Y485140D01*
D11*
X38735Y495935D02*
X38735Y507365D01*
X38735Y495935D02*
X43815Y495935D01*
X48235Y499110D02*
X48235Y504190D01*
X48237Y504301D01*
X48243Y504411D01*
X48252Y504522D01*
X48266Y504632D01*
X48283Y504741D01*
X48304Y504850D01*
X48329Y504958D01*
X48358Y505065D01*
X48390Y505171D01*
X48426Y505276D01*
X48466Y505379D01*
X48509Y505481D01*
X48556Y505582D01*
X48607Y505681D01*
X48660Y505778D01*
X48717Y505872D01*
X48778Y505965D01*
X48841Y506056D01*
X48908Y506145D01*
X48978Y506231D01*
X49051Y506314D01*
X49126Y506396D01*
X49204Y506474D01*
X49286Y506549D01*
X49369Y506622D01*
X49455Y506692D01*
X49544Y506759D01*
X49635Y506822D01*
X49728Y506883D01*
X49822Y506940D01*
X49919Y506993D01*
X50018Y507044D01*
X50119Y507091D01*
X50221Y507134D01*
X50324Y507174D01*
X50429Y507210D01*
X50535Y507242D01*
X50642Y507271D01*
X50750Y507296D01*
X50859Y507317D01*
X50968Y507334D01*
X51078Y507348D01*
X51189Y507357D01*
X51299Y507363D01*
X51410Y507365D01*
X51521Y507363D01*
X51631Y507357D01*
X51742Y507348D01*
X51852Y507334D01*
X51961Y507317D01*
X52070Y507296D01*
X52178Y507271D01*
X52285Y507242D01*
X52391Y507210D01*
X52496Y507174D01*
X52599Y507134D01*
X52701Y507091D01*
X52802Y507044D01*
X52901Y506993D01*
X52998Y506940D01*
X53092Y506883D01*
X53185Y506822D01*
X53276Y506759D01*
X53365Y506692D01*
X53451Y506622D01*
X53534Y506549D01*
X53616Y506474D01*
X53694Y506396D01*
X53769Y506314D01*
X53842Y506231D01*
X53912Y506145D01*
X53979Y506056D01*
X54042Y505965D01*
X54103Y505872D01*
X54160Y505778D01*
X54213Y505681D01*
X54264Y505582D01*
X54311Y505481D01*
X54354Y505379D01*
X54394Y505276D01*
X54430Y505171D01*
X54462Y505065D01*
X54491Y504958D01*
X54516Y504850D01*
X54537Y504741D01*
X54554Y504632D01*
X54568Y504522D01*
X54577Y504411D01*
X54583Y504301D01*
X54585Y504190D01*
X54585Y499110D01*
X54583Y498999D01*
X54577Y498889D01*
X54568Y498778D01*
X54554Y498668D01*
X54537Y498559D01*
X54516Y498450D01*
X54491Y498342D01*
X54462Y498235D01*
X54430Y498129D01*
X54394Y498024D01*
X54354Y497921D01*
X54311Y497819D01*
X54264Y497718D01*
X54213Y497619D01*
X54160Y497522D01*
X54103Y497428D01*
X54042Y497335D01*
X53979Y497244D01*
X53912Y497155D01*
X53842Y497069D01*
X53769Y496986D01*
X53694Y496904D01*
X53616Y496826D01*
X53534Y496751D01*
X53451Y496678D01*
X53365Y496608D01*
X53276Y496541D01*
X53185Y496478D01*
X53092Y496417D01*
X52997Y496360D01*
X52901Y496307D01*
X52802Y496256D01*
X52701Y496209D01*
X52599Y496166D01*
X52496Y496126D01*
X52391Y496090D01*
X52285Y496058D01*
X52178Y496029D01*
X52070Y496004D01*
X51961Y495983D01*
X51852Y495966D01*
X51742Y495952D01*
X51631Y495943D01*
X51521Y495937D01*
X51410Y495935D01*
X51299Y495937D01*
X51189Y495943D01*
X51078Y495952D01*
X50968Y495966D01*
X50859Y495983D01*
X50750Y496004D01*
X50642Y496029D01*
X50535Y496058D01*
X50429Y496090D01*
X50324Y496126D01*
X50221Y496166D01*
X50119Y496209D01*
X50018Y496256D01*
X49919Y496307D01*
X49823Y496360D01*
X49728Y496417D01*
X49635Y496478D01*
X49544Y496541D01*
X49455Y496608D01*
X49369Y496678D01*
X49286Y496751D01*
X49204Y496826D01*
X49126Y496904D01*
X49051Y496986D01*
X48978Y497069D01*
X48908Y497155D01*
X48841Y497244D01*
X48778Y497335D01*
X48717Y497428D01*
X48660Y497523D01*
X48607Y497619D01*
X48556Y497718D01*
X48509Y497819D01*
X48466Y497921D01*
X48426Y498024D01*
X48390Y498129D01*
X48358Y498235D01*
X48329Y498342D01*
X48304Y498450D01*
X48283Y498559D01*
X48266Y498668D01*
X48252Y498778D01*
X48243Y498889D01*
X48237Y498999D01*
X48235Y499110D01*
X59030Y495935D02*
X62840Y507365D01*
X66650Y495935D01*
X65697Y498793D02*
X59982Y498793D01*
X71476Y495935D02*
X71476Y507365D01*
X74651Y507365D01*
X74762Y507363D01*
X74872Y507357D01*
X74983Y507348D01*
X75093Y507334D01*
X75202Y507317D01*
X75311Y507296D01*
X75419Y507271D01*
X75526Y507242D01*
X75632Y507210D01*
X75737Y507174D01*
X75840Y507134D01*
X75942Y507091D01*
X76043Y507044D01*
X76142Y506993D01*
X76239Y506940D01*
X76333Y506883D01*
X76426Y506822D01*
X76517Y506759D01*
X76606Y506692D01*
X76692Y506622D01*
X76775Y506549D01*
X76857Y506474D01*
X76935Y506396D01*
X77010Y506314D01*
X77083Y506231D01*
X77153Y506145D01*
X77220Y506056D01*
X77283Y505965D01*
X77344Y505872D01*
X77401Y505778D01*
X77454Y505681D01*
X77505Y505582D01*
X77552Y505481D01*
X77595Y505379D01*
X77635Y505276D01*
X77671Y505171D01*
X77703Y505065D01*
X77732Y504958D01*
X77757Y504850D01*
X77778Y504741D01*
X77795Y504632D01*
X77809Y504522D01*
X77818Y504411D01*
X77824Y504301D01*
X77826Y504190D01*
X77826Y499110D01*
X77824Y498999D01*
X77818Y498889D01*
X77809Y498778D01*
X77795Y498668D01*
X77778Y498559D01*
X77757Y498450D01*
X77732Y498342D01*
X77703Y498235D01*
X77671Y498129D01*
X77635Y498024D01*
X77595Y497921D01*
X77552Y497819D01*
X77505Y497718D01*
X77454Y497619D01*
X77401Y497522D01*
X77344Y497428D01*
X77283Y497335D01*
X77220Y497244D01*
X77153Y497155D01*
X77083Y497069D01*
X77010Y496986D01*
X76935Y496904D01*
X76857Y496826D01*
X76775Y496751D01*
X76692Y496678D01*
X76606Y496608D01*
X76517Y496541D01*
X76426Y496478D01*
X76333Y496417D01*
X76238Y496360D01*
X76142Y496307D01*
X76043Y496256D01*
X75942Y496209D01*
X75840Y496166D01*
X75737Y496126D01*
X75632Y496090D01*
X75526Y496058D01*
X75419Y496029D01*
X75311Y496004D01*
X75202Y495983D01*
X75093Y495966D01*
X74983Y495952D01*
X74872Y495943D01*
X74762Y495937D01*
X74651Y495935D01*
X71476Y495935D01*
X86716Y495935D02*
X86816Y495937D01*
X86915Y495943D01*
X87015Y495953D01*
X87113Y495966D01*
X87212Y495984D01*
X87309Y496005D01*
X87405Y496030D01*
X87501Y496059D01*
X87595Y496092D01*
X87688Y496128D01*
X87779Y496168D01*
X87869Y496212D01*
X87957Y496259D01*
X88043Y496309D01*
X88127Y496363D01*
X88209Y496420D01*
X88288Y496480D01*
X88366Y496544D01*
X88440Y496610D01*
X88512Y496679D01*
X88581Y496751D01*
X88647Y496825D01*
X88711Y496903D01*
X88771Y496982D01*
X88828Y497064D01*
X88882Y497148D01*
X88932Y497234D01*
X88979Y497322D01*
X89023Y497412D01*
X89063Y497503D01*
X89099Y497596D01*
X89132Y497690D01*
X89161Y497786D01*
X89186Y497882D01*
X89207Y497979D01*
X89225Y498078D01*
X89238Y498176D01*
X89248Y498276D01*
X89254Y498375D01*
X89256Y498475D01*
X86716Y495935D02*
X86575Y495937D01*
X86434Y495942D01*
X86293Y495952D01*
X86152Y495965D01*
X86012Y495981D01*
X85872Y496002D01*
X85733Y496026D01*
X85594Y496054D01*
X85457Y496085D01*
X85320Y496120D01*
X85184Y496158D01*
X85049Y496200D01*
X84916Y496246D01*
X84783Y496295D01*
X84652Y496348D01*
X84523Y496404D01*
X84394Y496463D01*
X84268Y496526D01*
X84143Y496592D01*
X84020Y496661D01*
X83899Y496734D01*
X83780Y496810D01*
X83662Y496889D01*
X83547Y496970D01*
X83435Y497055D01*
X83324Y497143D01*
X83216Y497234D01*
X83110Y497327D01*
X83007Y497424D01*
X82906Y497523D01*
X83223Y504825D02*
X83225Y504925D01*
X83231Y505024D01*
X83241Y505124D01*
X83254Y505222D01*
X83272Y505321D01*
X83293Y505418D01*
X83318Y505514D01*
X83347Y505610D01*
X83380Y505704D01*
X83416Y505797D01*
X83456Y505888D01*
X83500Y505978D01*
X83547Y506066D01*
X83597Y506152D01*
X83651Y506236D01*
X83708Y506318D01*
X83768Y506397D01*
X83832Y506475D01*
X83898Y506549D01*
X83967Y506621D01*
X84039Y506690D01*
X84113Y506756D01*
X84191Y506820D01*
X84270Y506880D01*
X84352Y506937D01*
X84436Y506991D01*
X84522Y507041D01*
X84610Y507088D01*
X84700Y507132D01*
X84791Y507172D01*
X84884Y507208D01*
X84978Y507241D01*
X85074Y507270D01*
X85170Y507295D01*
X85267Y507316D01*
X85366Y507334D01*
X85464Y507347D01*
X85564Y507357D01*
X85663Y507363D01*
X85763Y507365D01*
X85763Y507366D02*
X85896Y507364D01*
X86029Y507359D01*
X86162Y507349D01*
X86295Y507336D01*
X86427Y507319D01*
X86559Y507299D01*
X86690Y507275D01*
X86820Y507247D01*
X86950Y507216D01*
X87078Y507181D01*
X87206Y507142D01*
X87332Y507100D01*
X87457Y507054D01*
X87581Y507005D01*
X87704Y506953D01*
X87825Y506897D01*
X87944Y506837D01*
X88062Y506775D01*
X88177Y506709D01*
X88291Y506640D01*
X88403Y506567D01*
X88513Y506492D01*
X88621Y506413D01*
X84493Y502602D02*
X84409Y502654D01*
X84326Y502709D01*
X84246Y502768D01*
X84168Y502829D01*
X84093Y502893D01*
X84020Y502961D01*
X83949Y503031D01*
X83882Y503103D01*
X83817Y503178D01*
X83755Y503256D01*
X83696Y503336D01*
X83640Y503418D01*
X83588Y503502D01*
X83539Y503588D01*
X83493Y503676D01*
X83450Y503766D01*
X83411Y503857D01*
X83376Y503950D01*
X83344Y504044D01*
X83316Y504139D01*
X83291Y504235D01*
X83271Y504332D01*
X83253Y504430D01*
X83240Y504528D01*
X83231Y504627D01*
X83225Y504726D01*
X83223Y504825D01*
X87986Y500698D02*
X88070Y500646D01*
X88153Y500591D01*
X88233Y500532D01*
X88311Y500471D01*
X88386Y500407D01*
X88459Y500339D01*
X88530Y500269D01*
X88597Y500197D01*
X88662Y500122D01*
X88724Y500044D01*
X88783Y499964D01*
X88839Y499882D01*
X88891Y499798D01*
X88940Y499712D01*
X88986Y499624D01*
X89029Y499534D01*
X89068Y499443D01*
X89103Y499350D01*
X89135Y499256D01*
X89163Y499161D01*
X89188Y499065D01*
X89208Y498968D01*
X89226Y498870D01*
X89239Y498772D01*
X89248Y498673D01*
X89254Y498574D01*
X89256Y498475D01*
X87986Y500698D02*
X84493Y502603D01*
X96457Y495935D02*
X98997Y495935D01*
X96457Y495935D02*
X96357Y495937D01*
X96258Y495943D01*
X96158Y495953D01*
X96060Y495966D01*
X95961Y495984D01*
X95864Y496005D01*
X95768Y496030D01*
X95672Y496059D01*
X95578Y496092D01*
X95485Y496128D01*
X95394Y496168D01*
X95304Y496212D01*
X95216Y496259D01*
X95130Y496309D01*
X95046Y496363D01*
X94964Y496420D01*
X94885Y496480D01*
X94807Y496544D01*
X94733Y496610D01*
X94661Y496679D01*
X94592Y496751D01*
X94526Y496825D01*
X94462Y496903D01*
X94402Y496982D01*
X94345Y497064D01*
X94291Y497148D01*
X94241Y497234D01*
X94194Y497322D01*
X94150Y497412D01*
X94110Y497503D01*
X94074Y497596D01*
X94041Y497690D01*
X94012Y497786D01*
X93987Y497882D01*
X93966Y497979D01*
X93948Y498078D01*
X93935Y498176D01*
X93925Y498276D01*
X93919Y498375D01*
X93917Y498475D01*
X93917Y504825D01*
X93919Y504925D01*
X93925Y505024D01*
X93935Y505124D01*
X93948Y505222D01*
X93966Y505321D01*
X93987Y505418D01*
X94012Y505514D01*
X94041Y505610D01*
X94074Y505704D01*
X94110Y505797D01*
X94150Y505888D01*
X94194Y505978D01*
X94241Y506066D01*
X94291Y506152D01*
X94345Y506236D01*
X94402Y506318D01*
X94462Y506397D01*
X94526Y506475D01*
X94592Y506549D01*
X94661Y506621D01*
X94733Y506690D01*
X94807Y506756D01*
X94885Y506820D01*
X94964Y506880D01*
X95046Y506937D01*
X95130Y506991D01*
X95216Y507041D01*
X95304Y507088D01*
X95394Y507132D01*
X95485Y507172D01*
X95578Y507208D01*
X95672Y507241D01*
X95768Y507270D01*
X95864Y507295D01*
X95961Y507316D01*
X96060Y507334D01*
X96158Y507347D01*
X96258Y507357D01*
X96357Y507363D01*
X96457Y507365D01*
X98997Y507365D01*
X104051Y507365D02*
X104051Y495935D01*
X104051Y500380D02*
X110401Y507365D01*
X106591Y502920D02*
X110401Y495935D01*
D10*
X38100Y231140D02*
X38100Y226060D01*
X63500Y226060D02*
X63500Y231140D01*
X62230Y231140D01*
X62230Y226060D02*
X63500Y226060D01*
X39370Y226060D02*
X38100Y226060D01*
X38100Y231140D02*
X39370Y231140D01*
D11*
X38735Y241935D02*
X38735Y253365D01*
X41910Y253365D01*
X42021Y253363D01*
X42131Y253357D01*
X42242Y253348D01*
X42352Y253334D01*
X42461Y253317D01*
X42570Y253296D01*
X42678Y253271D01*
X42785Y253242D01*
X42891Y253210D01*
X42996Y253174D01*
X43099Y253134D01*
X43201Y253091D01*
X43302Y253044D01*
X43401Y252993D01*
X43498Y252940D01*
X43592Y252883D01*
X43685Y252822D01*
X43776Y252759D01*
X43865Y252692D01*
X43951Y252622D01*
X44034Y252549D01*
X44116Y252474D01*
X44194Y252396D01*
X44269Y252314D01*
X44342Y252231D01*
X44412Y252145D01*
X44479Y252056D01*
X44542Y251965D01*
X44603Y251872D01*
X44660Y251777D01*
X44713Y251681D01*
X44764Y251582D01*
X44811Y251481D01*
X44854Y251379D01*
X44894Y251276D01*
X44930Y251171D01*
X44962Y251065D01*
X44991Y250958D01*
X45016Y250850D01*
X45037Y250741D01*
X45054Y250632D01*
X45068Y250522D01*
X45077Y250411D01*
X45083Y250301D01*
X45085Y250190D01*
X45083Y250079D01*
X45077Y249969D01*
X45068Y249858D01*
X45054Y249748D01*
X45037Y249639D01*
X45016Y249530D01*
X44991Y249422D01*
X44962Y249315D01*
X44930Y249209D01*
X44894Y249104D01*
X44854Y249001D01*
X44811Y248899D01*
X44764Y248798D01*
X44713Y248699D01*
X44660Y248602D01*
X44603Y248508D01*
X44542Y248415D01*
X44479Y248324D01*
X44412Y248235D01*
X44342Y248149D01*
X44269Y248066D01*
X44194Y247984D01*
X44116Y247906D01*
X44034Y247831D01*
X43951Y247758D01*
X43865Y247688D01*
X43776Y247621D01*
X43685Y247558D01*
X43592Y247497D01*
X43497Y247440D01*
X43401Y247387D01*
X43302Y247336D01*
X43201Y247289D01*
X43099Y247246D01*
X42996Y247206D01*
X42891Y247170D01*
X42785Y247138D01*
X42678Y247109D01*
X42570Y247084D01*
X42461Y247063D01*
X42352Y247046D01*
X42242Y247032D01*
X42131Y247023D01*
X42021Y247017D01*
X41910Y247015D01*
X38735Y247015D01*
X49594Y245110D02*
X49594Y250190D01*
X49596Y250301D01*
X49602Y250411D01*
X49611Y250522D01*
X49625Y250632D01*
X49642Y250741D01*
X49663Y250850D01*
X49688Y250958D01*
X49717Y251065D01*
X49749Y251171D01*
X49785Y251276D01*
X49825Y251379D01*
X49868Y251481D01*
X49915Y251582D01*
X49966Y251681D01*
X50019Y251778D01*
X50076Y251872D01*
X50137Y251965D01*
X50200Y252056D01*
X50267Y252145D01*
X50337Y252231D01*
X50410Y252314D01*
X50485Y252396D01*
X50563Y252474D01*
X50645Y252549D01*
X50728Y252622D01*
X50814Y252692D01*
X50903Y252759D01*
X50994Y252822D01*
X51087Y252883D01*
X51181Y252940D01*
X51278Y252993D01*
X51377Y253044D01*
X51478Y253091D01*
X51580Y253134D01*
X51683Y253174D01*
X51788Y253210D01*
X51894Y253242D01*
X52001Y253271D01*
X52109Y253296D01*
X52218Y253317D01*
X52327Y253334D01*
X52437Y253348D01*
X52548Y253357D01*
X52658Y253363D01*
X52769Y253365D01*
X52880Y253363D01*
X52990Y253357D01*
X53101Y253348D01*
X53211Y253334D01*
X53320Y253317D01*
X53429Y253296D01*
X53537Y253271D01*
X53644Y253242D01*
X53750Y253210D01*
X53855Y253174D01*
X53958Y253134D01*
X54060Y253091D01*
X54161Y253044D01*
X54260Y252993D01*
X54357Y252940D01*
X54451Y252883D01*
X54544Y252822D01*
X54635Y252759D01*
X54724Y252692D01*
X54810Y252622D01*
X54893Y252549D01*
X54975Y252474D01*
X55053Y252396D01*
X55128Y252314D01*
X55201Y252231D01*
X55271Y252145D01*
X55338Y252056D01*
X55401Y251965D01*
X55462Y251872D01*
X55519Y251778D01*
X55572Y251681D01*
X55623Y251582D01*
X55670Y251481D01*
X55713Y251379D01*
X55753Y251276D01*
X55789Y251171D01*
X55821Y251065D01*
X55850Y250958D01*
X55875Y250850D01*
X55896Y250741D01*
X55913Y250632D01*
X55927Y250522D01*
X55936Y250411D01*
X55942Y250301D01*
X55944Y250190D01*
X55944Y245110D01*
X55942Y244999D01*
X55936Y244889D01*
X55927Y244778D01*
X55913Y244668D01*
X55896Y244559D01*
X55875Y244450D01*
X55850Y244342D01*
X55821Y244235D01*
X55789Y244129D01*
X55753Y244024D01*
X55713Y243921D01*
X55670Y243819D01*
X55623Y243718D01*
X55572Y243619D01*
X55519Y243522D01*
X55462Y243428D01*
X55401Y243335D01*
X55338Y243244D01*
X55271Y243155D01*
X55201Y243069D01*
X55128Y242986D01*
X55053Y242904D01*
X54975Y242826D01*
X54893Y242751D01*
X54810Y242678D01*
X54724Y242608D01*
X54635Y242541D01*
X54544Y242478D01*
X54451Y242417D01*
X54356Y242360D01*
X54260Y242307D01*
X54161Y242256D01*
X54060Y242209D01*
X53958Y242166D01*
X53855Y242126D01*
X53750Y242090D01*
X53644Y242058D01*
X53537Y242029D01*
X53429Y242004D01*
X53320Y241983D01*
X53211Y241966D01*
X53101Y241952D01*
X52990Y241943D01*
X52880Y241937D01*
X52769Y241935D01*
X52658Y241937D01*
X52548Y241943D01*
X52437Y241952D01*
X52327Y241966D01*
X52218Y241983D01*
X52109Y242004D01*
X52001Y242029D01*
X51894Y242058D01*
X51788Y242090D01*
X51683Y242126D01*
X51580Y242166D01*
X51478Y242209D01*
X51377Y242256D01*
X51278Y242307D01*
X51182Y242360D01*
X51087Y242417D01*
X50994Y242478D01*
X50903Y242541D01*
X50814Y242608D01*
X50728Y242678D01*
X50645Y242751D01*
X50563Y242826D01*
X50485Y242904D01*
X50410Y242986D01*
X50337Y243069D01*
X50267Y243155D01*
X50200Y243244D01*
X50137Y243335D01*
X50076Y243428D01*
X50019Y243523D01*
X49966Y243619D01*
X49915Y243718D01*
X49868Y243819D01*
X49825Y243921D01*
X49785Y244024D01*
X49749Y244129D01*
X49717Y244235D01*
X49688Y244342D01*
X49663Y244450D01*
X49642Y244559D01*
X49625Y244668D01*
X49611Y244778D01*
X49602Y244889D01*
X49596Y244999D01*
X49594Y245110D01*
X60643Y253365D02*
X63183Y241935D01*
X65723Y249555D01*
X68263Y241935D01*
X70803Y253365D01*
X75908Y241935D02*
X80988Y241935D01*
X75908Y241935D02*
X75908Y253365D01*
X80988Y253365D01*
X79718Y248285D02*
X75908Y248285D01*
X85871Y253365D02*
X85871Y241935D01*
X85871Y253365D02*
X89046Y253365D01*
X89157Y253363D01*
X89267Y253357D01*
X89378Y253348D01*
X89488Y253334D01*
X89597Y253317D01*
X89706Y253296D01*
X89814Y253271D01*
X89921Y253242D01*
X90027Y253210D01*
X90132Y253174D01*
X90235Y253134D01*
X90337Y253091D01*
X90438Y253044D01*
X90537Y252993D01*
X90634Y252940D01*
X90728Y252883D01*
X90821Y252822D01*
X90912Y252759D01*
X91001Y252692D01*
X91087Y252622D01*
X91170Y252549D01*
X91252Y252474D01*
X91330Y252396D01*
X91405Y252314D01*
X91478Y252231D01*
X91548Y252145D01*
X91615Y252056D01*
X91678Y251965D01*
X91739Y251872D01*
X91796Y251777D01*
X91849Y251681D01*
X91900Y251582D01*
X91947Y251481D01*
X91990Y251379D01*
X92030Y251276D01*
X92066Y251171D01*
X92098Y251065D01*
X92127Y250958D01*
X92152Y250850D01*
X92173Y250741D01*
X92190Y250632D01*
X92204Y250522D01*
X92213Y250411D01*
X92219Y250301D01*
X92221Y250190D01*
X92219Y250079D01*
X92213Y249969D01*
X92204Y249858D01*
X92190Y249748D01*
X92173Y249639D01*
X92152Y249530D01*
X92127Y249422D01*
X92098Y249315D01*
X92066Y249209D01*
X92030Y249104D01*
X91990Y249001D01*
X91947Y248899D01*
X91900Y248798D01*
X91849Y248699D01*
X91796Y248602D01*
X91739Y248508D01*
X91678Y248415D01*
X91615Y248324D01*
X91548Y248235D01*
X91478Y248149D01*
X91405Y248066D01*
X91330Y247984D01*
X91252Y247906D01*
X91170Y247831D01*
X91087Y247758D01*
X91001Y247688D01*
X90912Y247621D01*
X90821Y247558D01*
X90728Y247497D01*
X90633Y247440D01*
X90537Y247387D01*
X90438Y247336D01*
X90337Y247289D01*
X90235Y247246D01*
X90132Y247206D01*
X90027Y247170D01*
X89921Y247138D01*
X89814Y247109D01*
X89706Y247084D01*
X89597Y247063D01*
X89488Y247046D01*
X89378Y247032D01*
X89267Y247023D01*
X89157Y247017D01*
X89046Y247015D01*
X85871Y247015D01*
X89681Y247015D02*
X92221Y241935D01*
D10*
X38100Y302260D02*
X38100Y307340D01*
X63500Y307340D02*
X63500Y302260D01*
X63500Y307340D02*
X62230Y307340D01*
X62230Y302260D02*
X63500Y302260D01*
X39370Y302260D02*
X38100Y302260D01*
X38100Y307340D02*
X39370Y307340D01*
D11*
X41910Y318135D02*
X41910Y329565D01*
X38735Y329565D02*
X45085Y329565D01*
X49403Y326390D02*
X49403Y321310D01*
X49403Y326390D02*
X49405Y326501D01*
X49411Y326611D01*
X49420Y326722D01*
X49434Y326832D01*
X49451Y326941D01*
X49472Y327050D01*
X49497Y327158D01*
X49526Y327265D01*
X49558Y327371D01*
X49594Y327476D01*
X49634Y327579D01*
X49677Y327681D01*
X49724Y327782D01*
X49775Y327881D01*
X49828Y327978D01*
X49885Y328072D01*
X49946Y328165D01*
X50009Y328256D01*
X50076Y328345D01*
X50146Y328431D01*
X50219Y328514D01*
X50294Y328596D01*
X50372Y328674D01*
X50454Y328749D01*
X50537Y328822D01*
X50623Y328892D01*
X50712Y328959D01*
X50803Y329022D01*
X50896Y329083D01*
X50990Y329140D01*
X51087Y329193D01*
X51186Y329244D01*
X51287Y329291D01*
X51389Y329334D01*
X51492Y329374D01*
X51597Y329410D01*
X51703Y329442D01*
X51810Y329471D01*
X51918Y329496D01*
X52027Y329517D01*
X52136Y329534D01*
X52246Y329548D01*
X52357Y329557D01*
X52467Y329563D01*
X52578Y329565D01*
X52689Y329563D01*
X52799Y329557D01*
X52910Y329548D01*
X53020Y329534D01*
X53129Y329517D01*
X53238Y329496D01*
X53346Y329471D01*
X53453Y329442D01*
X53559Y329410D01*
X53664Y329374D01*
X53767Y329334D01*
X53869Y329291D01*
X53970Y329244D01*
X54069Y329193D01*
X54166Y329140D01*
X54260Y329083D01*
X54353Y329022D01*
X54444Y328959D01*
X54533Y328892D01*
X54619Y328822D01*
X54702Y328749D01*
X54784Y328674D01*
X54862Y328596D01*
X54937Y328514D01*
X55010Y328431D01*
X55080Y328345D01*
X55147Y328256D01*
X55210Y328165D01*
X55271Y328072D01*
X55328Y327978D01*
X55381Y327881D01*
X55432Y327782D01*
X55479Y327681D01*
X55522Y327579D01*
X55562Y327476D01*
X55598Y327371D01*
X55630Y327265D01*
X55659Y327158D01*
X55684Y327050D01*
X55705Y326941D01*
X55722Y326832D01*
X55736Y326722D01*
X55745Y326611D01*
X55751Y326501D01*
X55753Y326390D01*
X55753Y321310D01*
X55751Y321199D01*
X55745Y321089D01*
X55736Y320978D01*
X55722Y320868D01*
X55705Y320759D01*
X55684Y320650D01*
X55659Y320542D01*
X55630Y320435D01*
X55598Y320329D01*
X55562Y320224D01*
X55522Y320121D01*
X55479Y320019D01*
X55432Y319918D01*
X55381Y319819D01*
X55328Y319722D01*
X55271Y319628D01*
X55210Y319535D01*
X55147Y319444D01*
X55080Y319355D01*
X55010Y319269D01*
X54937Y319186D01*
X54862Y319104D01*
X54784Y319026D01*
X54702Y318951D01*
X54619Y318878D01*
X54533Y318808D01*
X54444Y318741D01*
X54353Y318678D01*
X54260Y318617D01*
X54165Y318560D01*
X54069Y318507D01*
X53970Y318456D01*
X53869Y318409D01*
X53767Y318366D01*
X53664Y318326D01*
X53559Y318290D01*
X53453Y318258D01*
X53346Y318229D01*
X53238Y318204D01*
X53129Y318183D01*
X53020Y318166D01*
X52910Y318152D01*
X52799Y318143D01*
X52689Y318137D01*
X52578Y318135D01*
X52467Y318137D01*
X52357Y318143D01*
X52246Y318152D01*
X52136Y318166D01*
X52027Y318183D01*
X51918Y318204D01*
X51810Y318229D01*
X51703Y318258D01*
X51597Y318290D01*
X51492Y318326D01*
X51389Y318366D01*
X51287Y318409D01*
X51186Y318456D01*
X51087Y318507D01*
X50991Y318560D01*
X50896Y318617D01*
X50803Y318678D01*
X50712Y318741D01*
X50623Y318808D01*
X50537Y318878D01*
X50454Y318951D01*
X50372Y319026D01*
X50294Y319104D01*
X50219Y319186D01*
X50146Y319269D01*
X50076Y319355D01*
X50009Y319444D01*
X49946Y319535D01*
X49885Y319628D01*
X49828Y319723D01*
X49775Y319819D01*
X49724Y319918D01*
X49677Y320019D01*
X49634Y320121D01*
X49594Y320224D01*
X49558Y320329D01*
X49526Y320435D01*
X49497Y320542D01*
X49472Y320650D01*
X49451Y320759D01*
X49434Y320868D01*
X49420Y320978D01*
X49411Y321089D01*
X49405Y321199D01*
X49403Y321310D01*
X61239Y318135D02*
X61239Y329565D01*
X66319Y329565D01*
X66319Y324485D02*
X61239Y324485D01*
X75565Y324485D02*
X77470Y324485D01*
X77470Y318135D01*
X73660Y318135D01*
X73560Y318137D01*
X73461Y318143D01*
X73361Y318153D01*
X73263Y318166D01*
X73164Y318184D01*
X73067Y318205D01*
X72971Y318230D01*
X72875Y318259D01*
X72781Y318292D01*
X72688Y318328D01*
X72597Y318368D01*
X72507Y318412D01*
X72419Y318459D01*
X72333Y318509D01*
X72249Y318563D01*
X72167Y318620D01*
X72088Y318680D01*
X72010Y318744D01*
X71936Y318810D01*
X71864Y318879D01*
X71795Y318951D01*
X71729Y319025D01*
X71665Y319103D01*
X71605Y319182D01*
X71548Y319264D01*
X71494Y319348D01*
X71444Y319434D01*
X71397Y319522D01*
X71353Y319612D01*
X71313Y319703D01*
X71277Y319796D01*
X71244Y319890D01*
X71215Y319986D01*
X71190Y320082D01*
X71169Y320179D01*
X71151Y320278D01*
X71138Y320376D01*
X71128Y320476D01*
X71122Y320575D01*
X71120Y320675D01*
X71120Y327025D01*
X71122Y327125D01*
X71128Y327224D01*
X71138Y327324D01*
X71151Y327422D01*
X71169Y327521D01*
X71190Y327618D01*
X71215Y327714D01*
X71244Y327810D01*
X71277Y327904D01*
X71313Y327997D01*
X71353Y328088D01*
X71397Y328178D01*
X71444Y328266D01*
X71494Y328352D01*
X71548Y328436D01*
X71605Y328518D01*
X71665Y328597D01*
X71729Y328675D01*
X71795Y328749D01*
X71864Y328821D01*
X71936Y328890D01*
X72010Y328956D01*
X72088Y329020D01*
X72167Y329080D01*
X72249Y329137D01*
X72333Y329191D01*
X72419Y329241D01*
X72507Y329288D01*
X72597Y329332D01*
X72688Y329372D01*
X72781Y329408D01*
X72875Y329441D01*
X72971Y329470D01*
X73067Y329495D01*
X73164Y329516D01*
X73263Y329534D01*
X73361Y329547D01*
X73461Y329557D01*
X73560Y329563D01*
X73660Y329565D01*
X77470Y329565D01*
X83312Y329565D02*
X83312Y318135D01*
X89662Y318135D02*
X83312Y329565D01*
X89662Y329565D02*
X89662Y318135D01*
X95504Y318135D02*
X95504Y329565D01*
X98679Y329565D01*
X98790Y329563D01*
X98900Y329557D01*
X99011Y329548D01*
X99121Y329534D01*
X99230Y329517D01*
X99339Y329496D01*
X99447Y329471D01*
X99554Y329442D01*
X99660Y329410D01*
X99765Y329374D01*
X99868Y329334D01*
X99970Y329291D01*
X100071Y329244D01*
X100170Y329193D01*
X100267Y329140D01*
X100361Y329083D01*
X100454Y329022D01*
X100545Y328959D01*
X100634Y328892D01*
X100720Y328822D01*
X100803Y328749D01*
X100885Y328674D01*
X100963Y328596D01*
X101038Y328514D01*
X101111Y328431D01*
X101181Y328345D01*
X101248Y328256D01*
X101311Y328165D01*
X101372Y328072D01*
X101429Y327978D01*
X101482Y327881D01*
X101533Y327782D01*
X101580Y327681D01*
X101623Y327579D01*
X101663Y327476D01*
X101699Y327371D01*
X101731Y327265D01*
X101760Y327158D01*
X101785Y327050D01*
X101806Y326941D01*
X101823Y326832D01*
X101837Y326722D01*
X101846Y326611D01*
X101852Y326501D01*
X101854Y326390D01*
X101854Y321310D01*
X101852Y321199D01*
X101846Y321089D01*
X101837Y320978D01*
X101823Y320868D01*
X101806Y320759D01*
X101785Y320650D01*
X101760Y320542D01*
X101731Y320435D01*
X101699Y320329D01*
X101663Y320224D01*
X101623Y320121D01*
X101580Y320019D01*
X101533Y319918D01*
X101482Y319819D01*
X101429Y319722D01*
X101372Y319628D01*
X101311Y319535D01*
X101248Y319444D01*
X101181Y319355D01*
X101111Y319269D01*
X101038Y319186D01*
X100963Y319104D01*
X100885Y319026D01*
X100803Y318951D01*
X100720Y318878D01*
X100634Y318808D01*
X100545Y318741D01*
X100454Y318678D01*
X100361Y318617D01*
X100266Y318560D01*
X100170Y318507D01*
X100071Y318456D01*
X99970Y318409D01*
X99868Y318366D01*
X99765Y318326D01*
X99660Y318290D01*
X99554Y318258D01*
X99447Y318229D01*
X99339Y318204D01*
X99230Y318183D01*
X99121Y318166D01*
X99011Y318152D01*
X98900Y318143D01*
X98790Y318137D01*
X98679Y318135D01*
X95504Y318135D01*
D10*
X495300Y632460D02*
X495300Y637540D01*
X520700Y637540D02*
X520700Y632460D01*
X520700Y637540D02*
X519430Y637540D01*
X519430Y632460D02*
X520700Y632460D01*
X496570Y632460D02*
X495300Y632460D01*
X495300Y637540D02*
X496570Y637540D01*
D11*
X448310Y648335D02*
X448310Y659765D01*
X445135Y659765D02*
X451485Y659765D01*
X455803Y656590D02*
X455803Y651510D01*
X455803Y656590D02*
X455805Y656701D01*
X455811Y656811D01*
X455820Y656922D01*
X455834Y657032D01*
X455851Y657141D01*
X455872Y657250D01*
X455897Y657358D01*
X455926Y657465D01*
X455958Y657571D01*
X455994Y657676D01*
X456034Y657779D01*
X456077Y657881D01*
X456124Y657982D01*
X456175Y658081D01*
X456228Y658178D01*
X456285Y658272D01*
X456346Y658365D01*
X456409Y658456D01*
X456476Y658545D01*
X456546Y658631D01*
X456619Y658714D01*
X456694Y658796D01*
X456772Y658874D01*
X456854Y658949D01*
X456937Y659022D01*
X457023Y659092D01*
X457112Y659159D01*
X457203Y659222D01*
X457296Y659283D01*
X457391Y659340D01*
X457487Y659393D01*
X457586Y659444D01*
X457687Y659491D01*
X457789Y659534D01*
X457892Y659574D01*
X457997Y659610D01*
X458103Y659642D01*
X458210Y659671D01*
X458318Y659696D01*
X458427Y659717D01*
X458536Y659734D01*
X458646Y659748D01*
X458757Y659757D01*
X458867Y659763D01*
X458978Y659765D01*
X459089Y659763D01*
X459199Y659757D01*
X459310Y659748D01*
X459420Y659734D01*
X459529Y659717D01*
X459638Y659696D01*
X459746Y659671D01*
X459853Y659642D01*
X459959Y659610D01*
X460064Y659574D01*
X460167Y659534D01*
X460269Y659491D01*
X460370Y659444D01*
X460469Y659393D01*
X460566Y659340D01*
X460660Y659283D01*
X460753Y659222D01*
X460844Y659159D01*
X460933Y659092D01*
X461019Y659022D01*
X461102Y658949D01*
X461184Y658874D01*
X461262Y658796D01*
X461337Y658714D01*
X461410Y658631D01*
X461480Y658545D01*
X461547Y658456D01*
X461610Y658365D01*
X461671Y658272D01*
X461728Y658178D01*
X461781Y658081D01*
X461832Y657982D01*
X461879Y657881D01*
X461922Y657779D01*
X461962Y657676D01*
X461998Y657571D01*
X462030Y657465D01*
X462059Y657358D01*
X462084Y657250D01*
X462105Y657141D01*
X462122Y657032D01*
X462136Y656922D01*
X462145Y656811D01*
X462151Y656701D01*
X462153Y656590D01*
X462153Y651510D01*
X462151Y651399D01*
X462145Y651289D01*
X462136Y651178D01*
X462122Y651068D01*
X462105Y650959D01*
X462084Y650850D01*
X462059Y650742D01*
X462030Y650635D01*
X461998Y650529D01*
X461962Y650424D01*
X461922Y650321D01*
X461879Y650219D01*
X461832Y650118D01*
X461781Y650019D01*
X461728Y649923D01*
X461671Y649828D01*
X461610Y649735D01*
X461547Y649644D01*
X461480Y649555D01*
X461410Y649469D01*
X461337Y649386D01*
X461262Y649304D01*
X461184Y649226D01*
X461102Y649151D01*
X461019Y649078D01*
X460933Y649008D01*
X460844Y648941D01*
X460753Y648878D01*
X460660Y648817D01*
X460565Y648760D01*
X460469Y648707D01*
X460370Y648656D01*
X460269Y648609D01*
X460167Y648566D01*
X460064Y648526D01*
X459959Y648490D01*
X459853Y648458D01*
X459746Y648429D01*
X459638Y648404D01*
X459529Y648383D01*
X459420Y648366D01*
X459310Y648352D01*
X459199Y648343D01*
X459089Y648337D01*
X458978Y648335D01*
X458867Y648337D01*
X458757Y648343D01*
X458646Y648352D01*
X458536Y648366D01*
X458427Y648383D01*
X458318Y648404D01*
X458210Y648429D01*
X458103Y648458D01*
X457997Y648490D01*
X457892Y648526D01*
X457789Y648566D01*
X457687Y648609D01*
X457586Y648656D01*
X457487Y648707D01*
X457391Y648760D01*
X457296Y648817D01*
X457203Y648878D01*
X457112Y648941D01*
X457023Y649008D01*
X456937Y649078D01*
X456854Y649151D01*
X456772Y649226D01*
X456694Y649304D01*
X456619Y649386D01*
X456546Y649469D01*
X456476Y649555D01*
X456409Y649644D01*
X456346Y649735D01*
X456285Y649828D01*
X456228Y649923D01*
X456175Y650019D01*
X456124Y650118D01*
X456077Y650219D01*
X456034Y650321D01*
X455994Y650424D01*
X455958Y650529D01*
X455926Y650635D01*
X455897Y650742D01*
X455872Y650850D01*
X455851Y650959D01*
X455834Y651068D01*
X455820Y651178D01*
X455811Y651289D01*
X455805Y651399D01*
X455803Y651510D01*
X467639Y648335D02*
X467639Y659765D01*
X472719Y659765D01*
X472719Y654685D02*
X467639Y654685D01*
X480568Y648335D02*
X480668Y648337D01*
X480767Y648343D01*
X480867Y648353D01*
X480965Y648366D01*
X481064Y648384D01*
X481161Y648405D01*
X481257Y648430D01*
X481353Y648459D01*
X481447Y648492D01*
X481540Y648528D01*
X481631Y648568D01*
X481721Y648612D01*
X481809Y648659D01*
X481895Y648709D01*
X481979Y648763D01*
X482061Y648820D01*
X482140Y648880D01*
X482218Y648944D01*
X482292Y649010D01*
X482364Y649079D01*
X482433Y649151D01*
X482499Y649225D01*
X482563Y649303D01*
X482623Y649382D01*
X482680Y649464D01*
X482734Y649548D01*
X482784Y649634D01*
X482831Y649722D01*
X482875Y649812D01*
X482915Y649903D01*
X482951Y649996D01*
X482984Y650090D01*
X483013Y650186D01*
X483038Y650282D01*
X483059Y650379D01*
X483077Y650478D01*
X483090Y650576D01*
X483100Y650676D01*
X483106Y650775D01*
X483108Y650875D01*
X480568Y648335D02*
X480427Y648337D01*
X480286Y648342D01*
X480145Y648352D01*
X480004Y648365D01*
X479864Y648381D01*
X479724Y648402D01*
X479585Y648426D01*
X479446Y648454D01*
X479309Y648485D01*
X479172Y648520D01*
X479036Y648558D01*
X478901Y648600D01*
X478768Y648646D01*
X478635Y648695D01*
X478504Y648748D01*
X478375Y648804D01*
X478246Y648863D01*
X478120Y648926D01*
X477995Y648992D01*
X477872Y649061D01*
X477751Y649134D01*
X477632Y649210D01*
X477514Y649289D01*
X477399Y649370D01*
X477287Y649455D01*
X477176Y649543D01*
X477068Y649634D01*
X476962Y649727D01*
X476859Y649824D01*
X476758Y649923D01*
X477075Y657225D02*
X477077Y657325D01*
X477083Y657424D01*
X477093Y657524D01*
X477106Y657622D01*
X477124Y657721D01*
X477145Y657818D01*
X477170Y657914D01*
X477199Y658010D01*
X477232Y658104D01*
X477268Y658197D01*
X477308Y658288D01*
X477352Y658378D01*
X477399Y658466D01*
X477449Y658552D01*
X477503Y658636D01*
X477560Y658718D01*
X477620Y658797D01*
X477684Y658875D01*
X477750Y658949D01*
X477819Y659021D01*
X477891Y659090D01*
X477965Y659156D01*
X478043Y659220D01*
X478122Y659280D01*
X478204Y659337D01*
X478288Y659391D01*
X478374Y659441D01*
X478462Y659488D01*
X478552Y659532D01*
X478643Y659572D01*
X478736Y659608D01*
X478830Y659641D01*
X478926Y659670D01*
X479022Y659695D01*
X479119Y659716D01*
X479218Y659734D01*
X479316Y659747D01*
X479416Y659757D01*
X479515Y659763D01*
X479615Y659765D01*
X479615Y659766D02*
X479748Y659764D01*
X479881Y659759D01*
X480014Y659749D01*
X480147Y659736D01*
X480279Y659719D01*
X480411Y659699D01*
X480542Y659675D01*
X480672Y659647D01*
X480802Y659616D01*
X480930Y659581D01*
X481058Y659542D01*
X481184Y659500D01*
X481309Y659454D01*
X481433Y659405D01*
X481556Y659353D01*
X481677Y659297D01*
X481796Y659237D01*
X481914Y659175D01*
X482029Y659109D01*
X482143Y659040D01*
X482255Y658967D01*
X482365Y658892D01*
X482473Y658813D01*
X478345Y655002D02*
X478261Y655054D01*
X478178Y655109D01*
X478098Y655168D01*
X478020Y655229D01*
X477945Y655293D01*
X477872Y655361D01*
X477801Y655431D01*
X477734Y655503D01*
X477669Y655578D01*
X477607Y655656D01*
X477548Y655736D01*
X477492Y655818D01*
X477440Y655902D01*
X477391Y655988D01*
X477345Y656076D01*
X477302Y656166D01*
X477263Y656257D01*
X477228Y656350D01*
X477196Y656444D01*
X477168Y656539D01*
X477143Y656635D01*
X477123Y656732D01*
X477105Y656830D01*
X477092Y656928D01*
X477083Y657027D01*
X477077Y657126D01*
X477075Y657225D01*
X481838Y653098D02*
X481922Y653046D01*
X482005Y652991D01*
X482085Y652932D01*
X482163Y652871D01*
X482238Y652807D01*
X482311Y652739D01*
X482382Y652669D01*
X482449Y652597D01*
X482514Y652522D01*
X482576Y652444D01*
X482635Y652364D01*
X482691Y652282D01*
X482743Y652198D01*
X482792Y652112D01*
X482838Y652024D01*
X482881Y651934D01*
X482920Y651843D01*
X482955Y651750D01*
X482987Y651656D01*
X483015Y651561D01*
X483040Y651465D01*
X483060Y651368D01*
X483078Y651270D01*
X483091Y651172D01*
X483100Y651073D01*
X483106Y650974D01*
X483108Y650875D01*
X481838Y653098D02*
X478345Y655003D01*
X490310Y648335D02*
X492850Y648335D01*
X490310Y648335D02*
X490210Y648337D01*
X490111Y648343D01*
X490011Y648353D01*
X489913Y648366D01*
X489814Y648384D01*
X489717Y648405D01*
X489621Y648430D01*
X489525Y648459D01*
X489431Y648492D01*
X489338Y648528D01*
X489247Y648568D01*
X489157Y648612D01*
X489069Y648659D01*
X488983Y648709D01*
X488899Y648763D01*
X488817Y648820D01*
X488738Y648880D01*
X488660Y648944D01*
X488586Y649010D01*
X488514Y649079D01*
X488445Y649151D01*
X488379Y649225D01*
X488315Y649303D01*
X488255Y649382D01*
X488198Y649464D01*
X488144Y649548D01*
X488094Y649634D01*
X488047Y649722D01*
X488003Y649812D01*
X487963Y649903D01*
X487927Y649996D01*
X487894Y650090D01*
X487865Y650186D01*
X487840Y650282D01*
X487819Y650379D01*
X487801Y650478D01*
X487788Y650576D01*
X487778Y650676D01*
X487772Y650775D01*
X487770Y650875D01*
X487770Y657225D01*
X487772Y657325D01*
X487778Y657424D01*
X487788Y657524D01*
X487801Y657622D01*
X487819Y657721D01*
X487840Y657818D01*
X487865Y657914D01*
X487894Y658010D01*
X487927Y658104D01*
X487963Y658197D01*
X488003Y658288D01*
X488047Y658378D01*
X488094Y658466D01*
X488144Y658552D01*
X488198Y658636D01*
X488255Y658718D01*
X488315Y658797D01*
X488379Y658875D01*
X488445Y658949D01*
X488514Y659021D01*
X488586Y659090D01*
X488660Y659156D01*
X488738Y659220D01*
X488817Y659280D01*
X488899Y659337D01*
X488983Y659391D01*
X489069Y659441D01*
X489157Y659488D01*
X489247Y659532D01*
X489338Y659572D01*
X489431Y659608D01*
X489525Y659641D01*
X489621Y659670D01*
X489717Y659695D01*
X489814Y659716D01*
X489913Y659734D01*
X490011Y659747D01*
X490111Y659757D01*
X490210Y659763D01*
X490310Y659765D01*
X492850Y659765D01*
X497738Y659765D02*
X497738Y648335D01*
X502818Y648335D01*
D10*
X495300Y561340D02*
X495300Y556260D01*
X520700Y556260D02*
X520700Y561340D01*
X519430Y561340D01*
X519430Y556260D02*
X520700Y556260D01*
X496570Y556260D02*
X495300Y556260D01*
X495300Y561340D02*
X496570Y561340D01*
D11*
X448310Y572135D02*
X448310Y583565D01*
X445135Y583565D02*
X451485Y583565D01*
X455803Y580390D02*
X455803Y575310D01*
X455803Y580390D02*
X455805Y580501D01*
X455811Y580611D01*
X455820Y580722D01*
X455834Y580832D01*
X455851Y580941D01*
X455872Y581050D01*
X455897Y581158D01*
X455926Y581265D01*
X455958Y581371D01*
X455994Y581476D01*
X456034Y581579D01*
X456077Y581681D01*
X456124Y581782D01*
X456175Y581881D01*
X456228Y581978D01*
X456285Y582072D01*
X456346Y582165D01*
X456409Y582256D01*
X456476Y582345D01*
X456546Y582431D01*
X456619Y582514D01*
X456694Y582596D01*
X456772Y582674D01*
X456854Y582749D01*
X456937Y582822D01*
X457023Y582892D01*
X457112Y582959D01*
X457203Y583022D01*
X457296Y583083D01*
X457391Y583140D01*
X457487Y583193D01*
X457586Y583244D01*
X457687Y583291D01*
X457789Y583334D01*
X457892Y583374D01*
X457997Y583410D01*
X458103Y583442D01*
X458210Y583471D01*
X458318Y583496D01*
X458427Y583517D01*
X458536Y583534D01*
X458646Y583548D01*
X458757Y583557D01*
X458867Y583563D01*
X458978Y583565D01*
X459089Y583563D01*
X459199Y583557D01*
X459310Y583548D01*
X459420Y583534D01*
X459529Y583517D01*
X459638Y583496D01*
X459746Y583471D01*
X459853Y583442D01*
X459959Y583410D01*
X460064Y583374D01*
X460167Y583334D01*
X460269Y583291D01*
X460370Y583244D01*
X460469Y583193D01*
X460566Y583140D01*
X460660Y583083D01*
X460753Y583022D01*
X460844Y582959D01*
X460933Y582892D01*
X461019Y582822D01*
X461102Y582749D01*
X461184Y582674D01*
X461262Y582596D01*
X461337Y582514D01*
X461410Y582431D01*
X461480Y582345D01*
X461547Y582256D01*
X461610Y582165D01*
X461671Y582072D01*
X461728Y581978D01*
X461781Y581881D01*
X461832Y581782D01*
X461879Y581681D01*
X461922Y581579D01*
X461962Y581476D01*
X461998Y581371D01*
X462030Y581265D01*
X462059Y581158D01*
X462084Y581050D01*
X462105Y580941D01*
X462122Y580832D01*
X462136Y580722D01*
X462145Y580611D01*
X462151Y580501D01*
X462153Y580390D01*
X462153Y575310D01*
X462151Y575199D01*
X462145Y575089D01*
X462136Y574978D01*
X462122Y574868D01*
X462105Y574759D01*
X462084Y574650D01*
X462059Y574542D01*
X462030Y574435D01*
X461998Y574329D01*
X461962Y574224D01*
X461922Y574121D01*
X461879Y574019D01*
X461832Y573918D01*
X461781Y573819D01*
X461728Y573723D01*
X461671Y573628D01*
X461610Y573535D01*
X461547Y573444D01*
X461480Y573355D01*
X461410Y573269D01*
X461337Y573186D01*
X461262Y573104D01*
X461184Y573026D01*
X461102Y572951D01*
X461019Y572878D01*
X460933Y572808D01*
X460844Y572741D01*
X460753Y572678D01*
X460660Y572617D01*
X460565Y572560D01*
X460469Y572507D01*
X460370Y572456D01*
X460269Y572409D01*
X460167Y572366D01*
X460064Y572326D01*
X459959Y572290D01*
X459853Y572258D01*
X459746Y572229D01*
X459638Y572204D01*
X459529Y572183D01*
X459420Y572166D01*
X459310Y572152D01*
X459199Y572143D01*
X459089Y572137D01*
X458978Y572135D01*
X458867Y572137D01*
X458757Y572143D01*
X458646Y572152D01*
X458536Y572166D01*
X458427Y572183D01*
X458318Y572204D01*
X458210Y572229D01*
X458103Y572258D01*
X457997Y572290D01*
X457892Y572326D01*
X457789Y572366D01*
X457687Y572409D01*
X457586Y572456D01*
X457487Y572507D01*
X457391Y572560D01*
X457296Y572617D01*
X457203Y572678D01*
X457112Y572741D01*
X457023Y572808D01*
X456937Y572878D01*
X456854Y572951D01*
X456772Y573026D01*
X456694Y573104D01*
X456619Y573186D01*
X456546Y573269D01*
X456476Y573355D01*
X456409Y573444D01*
X456346Y573535D01*
X456285Y573628D01*
X456228Y573723D01*
X456175Y573819D01*
X456124Y573918D01*
X456077Y574019D01*
X456034Y574121D01*
X455994Y574224D01*
X455958Y574329D01*
X455926Y574435D01*
X455897Y574542D01*
X455872Y574650D01*
X455851Y574759D01*
X455834Y574868D01*
X455820Y574978D01*
X455811Y575089D01*
X455805Y575199D01*
X455803Y575310D01*
X467639Y572135D02*
X467639Y583565D01*
X472719Y583565D01*
X472719Y578485D02*
X467639Y578485D01*
X480568Y572135D02*
X480668Y572137D01*
X480767Y572143D01*
X480867Y572153D01*
X480965Y572166D01*
X481064Y572184D01*
X481161Y572205D01*
X481257Y572230D01*
X481353Y572259D01*
X481447Y572292D01*
X481540Y572328D01*
X481631Y572368D01*
X481721Y572412D01*
X481809Y572459D01*
X481895Y572509D01*
X481979Y572563D01*
X482061Y572620D01*
X482140Y572680D01*
X482218Y572744D01*
X482292Y572810D01*
X482364Y572879D01*
X482433Y572951D01*
X482499Y573025D01*
X482563Y573103D01*
X482623Y573182D01*
X482680Y573264D01*
X482734Y573348D01*
X482784Y573434D01*
X482831Y573522D01*
X482875Y573612D01*
X482915Y573703D01*
X482951Y573796D01*
X482984Y573890D01*
X483013Y573986D01*
X483038Y574082D01*
X483059Y574179D01*
X483077Y574278D01*
X483090Y574376D01*
X483100Y574476D01*
X483106Y574575D01*
X483108Y574675D01*
X480568Y572135D02*
X480427Y572137D01*
X480286Y572142D01*
X480145Y572152D01*
X480004Y572165D01*
X479864Y572181D01*
X479724Y572202D01*
X479585Y572226D01*
X479446Y572254D01*
X479309Y572285D01*
X479172Y572320D01*
X479036Y572358D01*
X478901Y572400D01*
X478768Y572446D01*
X478635Y572495D01*
X478504Y572548D01*
X478375Y572604D01*
X478246Y572663D01*
X478120Y572726D01*
X477995Y572792D01*
X477872Y572861D01*
X477751Y572934D01*
X477632Y573010D01*
X477514Y573089D01*
X477399Y573170D01*
X477287Y573255D01*
X477176Y573343D01*
X477068Y573434D01*
X476962Y573527D01*
X476859Y573624D01*
X476758Y573723D01*
X477075Y581025D02*
X477077Y581125D01*
X477083Y581224D01*
X477093Y581324D01*
X477106Y581422D01*
X477124Y581521D01*
X477145Y581618D01*
X477170Y581714D01*
X477199Y581810D01*
X477232Y581904D01*
X477268Y581997D01*
X477308Y582088D01*
X477352Y582178D01*
X477399Y582266D01*
X477449Y582352D01*
X477503Y582436D01*
X477560Y582518D01*
X477620Y582597D01*
X477684Y582675D01*
X477750Y582749D01*
X477819Y582821D01*
X477891Y582890D01*
X477965Y582956D01*
X478043Y583020D01*
X478122Y583080D01*
X478204Y583137D01*
X478288Y583191D01*
X478374Y583241D01*
X478462Y583288D01*
X478552Y583332D01*
X478643Y583372D01*
X478736Y583408D01*
X478830Y583441D01*
X478926Y583470D01*
X479022Y583495D01*
X479119Y583516D01*
X479218Y583534D01*
X479316Y583547D01*
X479416Y583557D01*
X479515Y583563D01*
X479615Y583565D01*
X479615Y583566D02*
X479748Y583564D01*
X479881Y583559D01*
X480014Y583549D01*
X480147Y583536D01*
X480279Y583519D01*
X480411Y583499D01*
X480542Y583475D01*
X480672Y583447D01*
X480802Y583416D01*
X480930Y583381D01*
X481058Y583342D01*
X481184Y583300D01*
X481309Y583254D01*
X481433Y583205D01*
X481556Y583153D01*
X481677Y583097D01*
X481796Y583037D01*
X481914Y582975D01*
X482029Y582909D01*
X482143Y582840D01*
X482255Y582767D01*
X482365Y582692D01*
X482473Y582613D01*
X478345Y578802D02*
X478261Y578854D01*
X478178Y578909D01*
X478098Y578968D01*
X478020Y579029D01*
X477945Y579093D01*
X477872Y579161D01*
X477801Y579231D01*
X477734Y579303D01*
X477669Y579378D01*
X477607Y579456D01*
X477548Y579536D01*
X477492Y579618D01*
X477440Y579702D01*
X477391Y579788D01*
X477345Y579876D01*
X477302Y579966D01*
X477263Y580057D01*
X477228Y580150D01*
X477196Y580244D01*
X477168Y580339D01*
X477143Y580435D01*
X477123Y580532D01*
X477105Y580630D01*
X477092Y580728D01*
X477083Y580827D01*
X477077Y580926D01*
X477075Y581025D01*
X481838Y576898D02*
X481922Y576846D01*
X482005Y576791D01*
X482085Y576732D01*
X482163Y576671D01*
X482238Y576607D01*
X482311Y576539D01*
X482382Y576469D01*
X482449Y576397D01*
X482514Y576322D01*
X482576Y576244D01*
X482635Y576164D01*
X482691Y576082D01*
X482743Y575998D01*
X482792Y575912D01*
X482838Y575824D01*
X482881Y575734D01*
X482920Y575643D01*
X482955Y575550D01*
X482987Y575456D01*
X483015Y575361D01*
X483040Y575265D01*
X483060Y575168D01*
X483078Y575070D01*
X483091Y574972D01*
X483100Y574873D01*
X483106Y574774D01*
X483108Y574675D01*
X481838Y576898D02*
X478345Y578803D01*
X488188Y583565D02*
X488188Y572135D01*
X488188Y583565D02*
X491363Y583565D01*
X491474Y583563D01*
X491584Y583557D01*
X491695Y583548D01*
X491805Y583534D01*
X491914Y583517D01*
X492023Y583496D01*
X492131Y583471D01*
X492238Y583442D01*
X492344Y583410D01*
X492449Y583374D01*
X492552Y583334D01*
X492654Y583291D01*
X492755Y583244D01*
X492854Y583193D01*
X492951Y583140D01*
X493045Y583083D01*
X493138Y583022D01*
X493229Y582959D01*
X493318Y582892D01*
X493404Y582822D01*
X493487Y582749D01*
X493569Y582674D01*
X493647Y582596D01*
X493722Y582514D01*
X493795Y582431D01*
X493865Y582345D01*
X493932Y582256D01*
X493995Y582165D01*
X494056Y582072D01*
X494113Y581978D01*
X494166Y581881D01*
X494217Y581782D01*
X494264Y581681D01*
X494307Y581579D01*
X494347Y581476D01*
X494383Y581371D01*
X494415Y581265D01*
X494444Y581158D01*
X494469Y581050D01*
X494490Y580941D01*
X494507Y580832D01*
X494521Y580722D01*
X494530Y580611D01*
X494536Y580501D01*
X494538Y580390D01*
X494538Y575310D01*
X494536Y575199D01*
X494530Y575089D01*
X494521Y574978D01*
X494507Y574868D01*
X494490Y574759D01*
X494469Y574650D01*
X494444Y574542D01*
X494415Y574435D01*
X494383Y574329D01*
X494347Y574224D01*
X494307Y574121D01*
X494264Y574019D01*
X494217Y573918D01*
X494166Y573819D01*
X494113Y573723D01*
X494056Y573628D01*
X493995Y573535D01*
X493932Y573444D01*
X493865Y573355D01*
X493795Y573269D01*
X493722Y573186D01*
X493647Y573104D01*
X493569Y573026D01*
X493487Y572951D01*
X493404Y572878D01*
X493318Y572808D01*
X493229Y572741D01*
X493138Y572678D01*
X493045Y572617D01*
X492951Y572560D01*
X492854Y572507D01*
X492755Y572456D01*
X492654Y572409D01*
X492552Y572366D01*
X492449Y572326D01*
X492344Y572290D01*
X492238Y572258D01*
X492131Y572229D01*
X492023Y572204D01*
X491914Y572183D01*
X491805Y572166D01*
X491695Y572152D01*
X491584Y572143D01*
X491474Y572137D01*
X491363Y572135D01*
X488188Y572135D01*
X499364Y572135D02*
X503174Y583565D01*
X506984Y572135D01*
X506031Y574993D02*
X500316Y574993D01*
D10*
X38100Y683260D02*
X38100Y688340D01*
X63500Y688340D02*
X63500Y683260D01*
X63500Y688340D02*
X62230Y688340D01*
X62230Y683260D02*
X63500Y683260D01*
X39370Y683260D02*
X38100Y683260D01*
X38100Y688340D02*
X39370Y688340D01*
D11*
X41910Y699135D02*
X41910Y710565D01*
X38735Y710565D02*
X45085Y710565D01*
X49403Y707390D02*
X49403Y702310D01*
X49403Y707390D02*
X49405Y707501D01*
X49411Y707611D01*
X49420Y707722D01*
X49434Y707832D01*
X49451Y707941D01*
X49472Y708050D01*
X49497Y708158D01*
X49526Y708265D01*
X49558Y708371D01*
X49594Y708476D01*
X49634Y708579D01*
X49677Y708681D01*
X49724Y708782D01*
X49775Y708881D01*
X49828Y708978D01*
X49885Y709072D01*
X49946Y709165D01*
X50009Y709256D01*
X50076Y709345D01*
X50146Y709431D01*
X50219Y709514D01*
X50294Y709596D01*
X50372Y709674D01*
X50454Y709749D01*
X50537Y709822D01*
X50623Y709892D01*
X50712Y709959D01*
X50803Y710022D01*
X50896Y710083D01*
X50990Y710140D01*
X51087Y710193D01*
X51186Y710244D01*
X51287Y710291D01*
X51389Y710334D01*
X51492Y710374D01*
X51597Y710410D01*
X51703Y710442D01*
X51810Y710471D01*
X51918Y710496D01*
X52027Y710517D01*
X52136Y710534D01*
X52246Y710548D01*
X52357Y710557D01*
X52467Y710563D01*
X52578Y710565D01*
X52689Y710563D01*
X52799Y710557D01*
X52910Y710548D01*
X53020Y710534D01*
X53129Y710517D01*
X53238Y710496D01*
X53346Y710471D01*
X53453Y710442D01*
X53559Y710410D01*
X53664Y710374D01*
X53767Y710334D01*
X53869Y710291D01*
X53970Y710244D01*
X54069Y710193D01*
X54166Y710140D01*
X54260Y710083D01*
X54353Y710022D01*
X54444Y709959D01*
X54533Y709892D01*
X54619Y709822D01*
X54702Y709749D01*
X54784Y709674D01*
X54862Y709596D01*
X54937Y709514D01*
X55010Y709431D01*
X55080Y709345D01*
X55147Y709256D01*
X55210Y709165D01*
X55271Y709072D01*
X55328Y708978D01*
X55381Y708881D01*
X55432Y708782D01*
X55479Y708681D01*
X55522Y708579D01*
X55562Y708476D01*
X55598Y708371D01*
X55630Y708265D01*
X55659Y708158D01*
X55684Y708050D01*
X55705Y707941D01*
X55722Y707832D01*
X55736Y707722D01*
X55745Y707611D01*
X55751Y707501D01*
X55753Y707390D01*
X55753Y702310D01*
X55751Y702199D01*
X55745Y702089D01*
X55736Y701978D01*
X55722Y701868D01*
X55705Y701759D01*
X55684Y701650D01*
X55659Y701542D01*
X55630Y701435D01*
X55598Y701329D01*
X55562Y701224D01*
X55522Y701121D01*
X55479Y701019D01*
X55432Y700918D01*
X55381Y700819D01*
X55328Y700723D01*
X55271Y700628D01*
X55210Y700535D01*
X55147Y700444D01*
X55080Y700355D01*
X55010Y700269D01*
X54937Y700186D01*
X54862Y700104D01*
X54784Y700026D01*
X54702Y699951D01*
X54619Y699878D01*
X54533Y699808D01*
X54444Y699741D01*
X54353Y699678D01*
X54260Y699617D01*
X54165Y699560D01*
X54069Y699507D01*
X53970Y699456D01*
X53869Y699409D01*
X53767Y699366D01*
X53664Y699326D01*
X53559Y699290D01*
X53453Y699258D01*
X53346Y699229D01*
X53238Y699204D01*
X53129Y699183D01*
X53020Y699166D01*
X52910Y699152D01*
X52799Y699143D01*
X52689Y699137D01*
X52578Y699135D01*
X52467Y699137D01*
X52357Y699143D01*
X52246Y699152D01*
X52136Y699166D01*
X52027Y699183D01*
X51918Y699204D01*
X51810Y699229D01*
X51703Y699258D01*
X51597Y699290D01*
X51492Y699326D01*
X51389Y699366D01*
X51287Y699409D01*
X51186Y699456D01*
X51087Y699507D01*
X50991Y699560D01*
X50896Y699617D01*
X50803Y699678D01*
X50712Y699741D01*
X50623Y699808D01*
X50537Y699878D01*
X50454Y699951D01*
X50372Y700026D01*
X50294Y700104D01*
X50219Y700186D01*
X50146Y700269D01*
X50076Y700355D01*
X50009Y700444D01*
X49946Y700535D01*
X49885Y700628D01*
X49828Y700723D01*
X49775Y700819D01*
X49724Y700918D01*
X49677Y701019D01*
X49634Y701121D01*
X49594Y701224D01*
X49558Y701329D01*
X49526Y701435D01*
X49497Y701542D01*
X49472Y701650D01*
X49451Y701759D01*
X49434Y701868D01*
X49420Y701978D01*
X49411Y702089D01*
X49405Y702199D01*
X49403Y702310D01*
X61239Y699135D02*
X61239Y710565D01*
X66319Y710565D01*
X66319Y705485D02*
X61239Y705485D01*
X70104Y710565D02*
X73914Y699135D01*
X77724Y710565D01*
X83058Y710565D02*
X83058Y699135D01*
X81788Y699135D02*
X84328Y699135D01*
X84328Y710565D02*
X81788Y710565D01*
X89408Y710565D02*
X89408Y699135D01*
X95758Y699135D02*
X89408Y710565D01*
X95758Y710565D02*
X95758Y699135D01*
X152400Y698500D02*
X152400Y215900D01*
X152400Y698500D02*
X406400Y698500D01*
X406400Y215900D01*
X152400Y215900D01*
D12*
X264640Y247594D02*
X264640Y256032D01*
X264639Y247594D02*
X264641Y247481D01*
X264647Y247368D01*
X264657Y247255D01*
X264671Y247142D01*
X264688Y247030D01*
X264710Y246919D01*
X264735Y246809D01*
X264765Y246699D01*
X264798Y246591D01*
X264835Y246484D01*
X264875Y246378D01*
X264920Y246274D01*
X264968Y246171D01*
X265019Y246070D01*
X265074Y245971D01*
X265132Y245874D01*
X265194Y245779D01*
X265259Y245686D01*
X265327Y245596D01*
X265398Y245508D01*
X265473Y245422D01*
X265550Y245339D01*
X265630Y245259D01*
X265713Y245182D01*
X265799Y245107D01*
X265887Y245036D01*
X265977Y244968D01*
X266070Y244903D01*
X266165Y244841D01*
X266262Y244783D01*
X266361Y244728D01*
X266462Y244677D01*
X266565Y244629D01*
X266669Y244584D01*
X266775Y244544D01*
X266882Y244507D01*
X266990Y244474D01*
X267100Y244444D01*
X267210Y244419D01*
X267321Y244397D01*
X267433Y244380D01*
X267546Y244366D01*
X267659Y244356D01*
X267772Y244350D01*
X267885Y244348D01*
X267998Y244350D01*
X268111Y244356D01*
X268224Y244366D01*
X268337Y244380D01*
X268449Y244397D01*
X268560Y244419D01*
X268670Y244444D01*
X268780Y244474D01*
X268888Y244507D01*
X268995Y244544D01*
X269101Y244584D01*
X269205Y244629D01*
X269308Y244677D01*
X269409Y244728D01*
X269508Y244783D01*
X269605Y244841D01*
X269700Y244903D01*
X269793Y244968D01*
X269883Y245036D01*
X269971Y245107D01*
X270057Y245182D01*
X270140Y245259D01*
X270220Y245339D01*
X270297Y245422D01*
X270372Y245508D01*
X270443Y245596D01*
X270511Y245686D01*
X270576Y245779D01*
X270638Y245874D01*
X270696Y245971D01*
X270751Y246070D01*
X270802Y246171D01*
X270850Y246274D01*
X270895Y246378D01*
X270935Y246484D01*
X270972Y246591D01*
X271005Y246699D01*
X271035Y246809D01*
X271060Y246919D01*
X271082Y247030D01*
X271099Y247142D01*
X271113Y247255D01*
X271123Y247368D01*
X271129Y247481D01*
X271131Y247594D01*
X271131Y256032D01*
X282560Y246944D02*
X282558Y246845D01*
X282552Y246745D01*
X282543Y246646D01*
X282530Y246548D01*
X282513Y246450D01*
X282492Y246352D01*
X282467Y246256D01*
X282439Y246161D01*
X282407Y246067D01*
X282372Y245974D01*
X282333Y245882D01*
X282290Y245792D01*
X282245Y245704D01*
X282195Y245617D01*
X282143Y245533D01*
X282087Y245450D01*
X282029Y245370D01*
X281967Y245292D01*
X281902Y245217D01*
X281834Y245144D01*
X281764Y245074D01*
X281691Y245006D01*
X281616Y244941D01*
X281538Y244879D01*
X281458Y244821D01*
X281375Y244765D01*
X281291Y244713D01*
X281204Y244663D01*
X281116Y244618D01*
X281026Y244575D01*
X280934Y244536D01*
X280841Y244501D01*
X280747Y244469D01*
X280652Y244441D01*
X280556Y244416D01*
X280458Y244395D01*
X280360Y244378D01*
X280262Y244365D01*
X280163Y244356D01*
X280063Y244350D01*
X279964Y244348D01*
X279820Y244350D01*
X279675Y244356D01*
X279531Y244365D01*
X279388Y244378D01*
X279244Y244395D01*
X279101Y244416D01*
X278959Y244441D01*
X278818Y244469D01*
X278677Y244501D01*
X278537Y244537D01*
X278398Y244576D01*
X278260Y244619D01*
X278124Y244666D01*
X277988Y244716D01*
X277854Y244770D01*
X277722Y244827D01*
X277591Y244888D01*
X277462Y244952D01*
X277334Y245020D01*
X277208Y245090D01*
X277084Y245165D01*
X276963Y245242D01*
X276843Y245323D01*
X276725Y245406D01*
X276610Y245493D01*
X276497Y245583D01*
X276386Y245676D01*
X276278Y245771D01*
X276172Y245870D01*
X276069Y245971D01*
X276395Y253436D02*
X276397Y253535D01*
X276403Y253635D01*
X276412Y253734D01*
X276425Y253832D01*
X276442Y253930D01*
X276463Y254028D01*
X276488Y254124D01*
X276516Y254219D01*
X276548Y254313D01*
X276583Y254406D01*
X276622Y254498D01*
X276665Y254588D01*
X276710Y254676D01*
X276760Y254763D01*
X276812Y254847D01*
X276868Y254930D01*
X276926Y255010D01*
X276988Y255088D01*
X277053Y255163D01*
X277121Y255236D01*
X277191Y255306D01*
X277264Y255374D01*
X277339Y255439D01*
X277417Y255501D01*
X277497Y255559D01*
X277580Y255615D01*
X277664Y255667D01*
X277751Y255717D01*
X277839Y255762D01*
X277929Y255805D01*
X278021Y255844D01*
X278114Y255879D01*
X278208Y255911D01*
X278303Y255939D01*
X278400Y255964D01*
X278497Y255985D01*
X278595Y256002D01*
X278693Y256015D01*
X278792Y256024D01*
X278892Y256030D01*
X278991Y256032D01*
X279127Y256030D01*
X279263Y256024D01*
X279399Y256015D01*
X279535Y256002D01*
X279670Y255984D01*
X279804Y255964D01*
X279938Y255939D01*
X280072Y255911D01*
X280204Y255878D01*
X280335Y255843D01*
X280466Y255803D01*
X280595Y255760D01*
X280723Y255714D01*
X280849Y255663D01*
X280975Y255610D01*
X281098Y255552D01*
X281220Y255492D01*
X281340Y255428D01*
X281459Y255360D01*
X281575Y255290D01*
X281689Y255216D01*
X281802Y255139D01*
X281912Y255058D01*
X277692Y251164D02*
X277606Y251217D01*
X277522Y251274D01*
X277440Y251333D01*
X277360Y251396D01*
X277283Y251462D01*
X277208Y251530D01*
X277136Y251602D01*
X277067Y251676D01*
X277001Y251753D01*
X276938Y251832D01*
X276878Y251914D01*
X276821Y251998D01*
X276767Y252084D01*
X276717Y252172D01*
X276670Y252262D01*
X276626Y252353D01*
X276587Y252447D01*
X276550Y252541D01*
X276518Y252637D01*
X276489Y252735D01*
X276464Y252833D01*
X276443Y252932D01*
X276425Y253032D01*
X276412Y253132D01*
X276402Y253233D01*
X276396Y253335D01*
X276394Y253436D01*
X281263Y249216D02*
X281349Y249163D01*
X281433Y249106D01*
X281515Y249047D01*
X281595Y248984D01*
X281672Y248918D01*
X281747Y248850D01*
X281819Y248778D01*
X281888Y248704D01*
X281954Y248627D01*
X282017Y248548D01*
X282077Y248466D01*
X282134Y248382D01*
X282188Y248296D01*
X282238Y248208D01*
X282285Y248118D01*
X282329Y248027D01*
X282368Y247933D01*
X282405Y247839D01*
X282437Y247743D01*
X282466Y247645D01*
X282491Y247547D01*
X282512Y247448D01*
X282530Y247348D01*
X282543Y247248D01*
X282553Y247147D01*
X282559Y247045D01*
X282561Y246944D01*
X281263Y249216D02*
X277693Y251164D01*
X287669Y250839D02*
X290915Y250839D01*
X290915Y250840D02*
X291028Y250838D01*
X291141Y250832D01*
X291254Y250822D01*
X291367Y250808D01*
X291479Y250791D01*
X291590Y250769D01*
X291700Y250744D01*
X291810Y250714D01*
X291918Y250681D01*
X292025Y250644D01*
X292131Y250604D01*
X292235Y250559D01*
X292338Y250511D01*
X292439Y250460D01*
X292538Y250405D01*
X292635Y250347D01*
X292730Y250285D01*
X292823Y250220D01*
X292913Y250152D01*
X293001Y250081D01*
X293087Y250006D01*
X293170Y249929D01*
X293250Y249849D01*
X293327Y249766D01*
X293402Y249680D01*
X293473Y249592D01*
X293541Y249502D01*
X293606Y249409D01*
X293668Y249314D01*
X293726Y249217D01*
X293781Y249118D01*
X293832Y249017D01*
X293880Y248914D01*
X293925Y248810D01*
X293965Y248704D01*
X294002Y248597D01*
X294035Y248489D01*
X294065Y248379D01*
X294090Y248269D01*
X294112Y248158D01*
X294129Y248046D01*
X294143Y247933D01*
X294153Y247820D01*
X294159Y247707D01*
X294161Y247594D01*
X294159Y247481D01*
X294153Y247368D01*
X294143Y247255D01*
X294129Y247142D01*
X294112Y247030D01*
X294090Y246919D01*
X294065Y246809D01*
X294035Y246699D01*
X294002Y246591D01*
X293965Y246484D01*
X293925Y246378D01*
X293880Y246274D01*
X293832Y246171D01*
X293781Y246070D01*
X293726Y245971D01*
X293668Y245874D01*
X293606Y245779D01*
X293541Y245686D01*
X293473Y245596D01*
X293402Y245508D01*
X293327Y245422D01*
X293250Y245339D01*
X293170Y245259D01*
X293087Y245182D01*
X293001Y245107D01*
X292913Y245036D01*
X292823Y244968D01*
X292730Y244903D01*
X292635Y244841D01*
X292538Y244783D01*
X292439Y244728D01*
X292338Y244677D01*
X292235Y244629D01*
X292131Y244584D01*
X292025Y244544D01*
X291918Y244507D01*
X291810Y244474D01*
X291700Y244444D01*
X291590Y244419D01*
X291479Y244397D01*
X291367Y244380D01*
X291254Y244366D01*
X291141Y244356D01*
X291028Y244350D01*
X290915Y244348D01*
X287669Y244348D01*
X287669Y256032D01*
X290915Y256032D01*
X291016Y256030D01*
X291116Y256024D01*
X291216Y256014D01*
X291316Y256001D01*
X291415Y255983D01*
X291514Y255962D01*
X291611Y255937D01*
X291708Y255908D01*
X291803Y255875D01*
X291897Y255839D01*
X291989Y255799D01*
X292080Y255756D01*
X292169Y255709D01*
X292256Y255659D01*
X292342Y255605D01*
X292425Y255548D01*
X292505Y255488D01*
X292584Y255425D01*
X292660Y255358D01*
X292733Y255289D01*
X292803Y255217D01*
X292871Y255143D01*
X292936Y255066D01*
X292997Y254986D01*
X293056Y254904D01*
X293111Y254820D01*
X293163Y254734D01*
X293212Y254646D01*
X293257Y254556D01*
X293299Y254464D01*
X293337Y254371D01*
X293371Y254276D01*
X293402Y254181D01*
X293429Y254084D01*
X293452Y253986D01*
X293472Y253887D01*
X293487Y253787D01*
X293499Y253687D01*
X293507Y253587D01*
X293511Y253486D01*
X293511Y253386D01*
X293507Y253285D01*
X293499Y253185D01*
X293487Y253085D01*
X293472Y252985D01*
X293452Y252886D01*
X293429Y252788D01*
X293402Y252691D01*
X293371Y252596D01*
X293337Y252501D01*
X293299Y252408D01*
X293257Y252316D01*
X293212Y252226D01*
X293163Y252138D01*
X293111Y252052D01*
X293056Y251968D01*
X292997Y251886D01*
X292936Y251806D01*
X292871Y251729D01*
X292803Y251655D01*
X292733Y251583D01*
X292660Y251514D01*
X292584Y251447D01*
X292505Y251384D01*
X292425Y251324D01*
X292342Y251267D01*
X292256Y251213D01*
X292169Y251163D01*
X292080Y251116D01*
X291989Y251073D01*
X291897Y251033D01*
X291803Y250997D01*
X291708Y250964D01*
X291611Y250935D01*
X291514Y250910D01*
X291415Y250889D01*
X291316Y250871D01*
X291216Y250858D01*
X291116Y250848D01*
X291016Y250842D01*
X290915Y250840D01*
M02*
